<svg width="172" height="138" viewBox="0 0 172 138" fill="none" xmlns="http://www.w3.org/2000/svg">
<path fill-rule="evenodd" clip-rule="evenodd" d="M30.2884 51.814L52.8315 34.9981L75.4964 51.9358V75.4538H30.2884V51.814ZM27.1202 78.5001H78.2991V50.2299L52.8315 31.2206L27.3401 50.083L27.1202 78.5001ZM43.2928 31.8059V27.7579H36.7638V36.3762L25.1421 45.1251V49.5648C25.5301 49.4612 26.5246 48.6259 26.9143 48.3338L52.8252 29.1943L80.1166 49.3037V44.864L52.8252 24.7545L43.2928 31.8059ZM66.9409 117.696C66.9662 118.833 68.2173 121.354 68.6723 122.371C68.7749 122.6 68.8112 122.657 68.8975 122.829C69.8373 124.694 71.0381 126.376 72.3795 127.973L73.5618 129.268C73.6313 129.345 73.5706 129.284 73.6437 129.357L76.1019 131.511C77.2142 132.341 78.3197 133.128 79.5504 133.784C80.8503 134.478 82.1271 135.085 83.5058 135.636C83.817 135.761 84.1671 135.88 84.5079 136.001C85.6439 136.403 86.7341 136.656 87.9527 136.911C88.3515 136.995 88.7573 137.067 89.1781 137.137C93.2091 137.812 97.7161 137.583 101.515 136.48L102.987 136.073C103.929 135.759 104.752 135.453 105.674 135.088C106.125 134.909 106.431 134.699 106.892 134.513C109.049 133.639 111.905 131.683 113.585 130.189C113.792 130.005 113.857 129.909 114.077 129.741C115.169 128.907 116.279 127.5 117.177 126.436L117.993 125.372C119.078 123.937 119.928 122.376 120.738 120.772L121.794 118.155C122.624 115.662 123.147 113.106 123.214 110.429L122.957 105.565C122.727 105.732 122.826 105.799 122.863 106.163C122.903 106.546 122.957 106.698 122.961 107.1C122.964 107.468 122.96 107.725 122.996 108.071L123.005 109.163C122.997 109.279 122.963 109.441 122.957 109.745C122.913 111.893 122.41 114.033 121.731 116.042C121.366 117.122 120.885 118.105 120.366 119.119C119.662 120.495 118.785 121.705 117.841 122.914C117.769 123.006 117.726 123.076 117.663 123.163C117.53 123.349 117.473 123.399 117.3 123.568C116.546 124.309 115.9 125.191 115.053 125.849C114.726 126.103 114.525 126.297 114.222 126.555C112.972 127.618 111.174 128.791 109.648 129.496L107.587 130.425C107.367 130.525 107.27 130.531 107.008 130.614C105.709 131.029 104.319 131.534 102.953 131.768C97.5178 132.702 92.9584 132.154 87.9096 130.035L87.0998 129.649C85.5323 128.858 83.9044 127.907 82.5894 126.729L80.8445 125.143C80.7641 125.068 80.7483 125.056 80.6732 124.973C80.0946 124.335 79.4644 123.702 79.0074 122.966C78.8255 122.673 78.6505 122.48 78.4689 122.223C78.141 121.759 77.7941 121.239 77.502 120.713L76.661 119.077C76.2673 118.109 75.479 116.404 75.3946 115.389C76.8215 115.358 78.3673 114.401 79.8349 114.279L79.1445 113.347C79.1328 113.333 79.1162 113.314 79.1044 113.301C79.0926 113.288 79.076 113.269 79.0641 113.256L78.3617 112.506C78.046 112.196 77.9036 111.957 77.5942 111.651C77.4389 111.498 77.3087 111.385 77.1671 111.224C76.9943 111.028 76.977 110.953 76.7839 110.753L74.4553 108.214C73.9982 107.614 73.3775 107.037 72.8541 106.484L69.8057 103.127C69.7897 103.107 69.7438 103.053 69.7277 103.034C69.5791 102.86 69.5043 102.798 69.3534 102.639L68.1724 101.343C67.9308 101.03 67.678 100.631 67.2825 100.525C67.2726 100.968 67.086 101.414 66.9917 101.857C66.6002 103.698 65.9195 107.127 65.4793 108.716L63.6733 116.904C63.3613 118.619 62.7777 118.779 64.242 118.413C65.1825 118.178 66.0362 117.907 66.9409 117.696ZM122.872 105.48C122.872 105.067 122.787 104.976 122.787 104.711H122.701C122.701 104.887 122.717 105.012 122.728 105.161C122.749 105.464 122.562 105.253 122.872 105.48ZM122.701 104.455V104.113H122.616C122.616 104.161 122.614 104.253 122.622 104.278C122.665 104.429 122.649 104.373 122.701 104.455ZM122.701 104.455V104.54L122.801 104.469L122.701 104.455ZM3.227 48.7451L3.2659 48.7446H7.4649C9.5073 26.6775 27.1778 9.1429 49.3056 7.3105V3.5931C49.1765 1.6485 50.6616 0 52.6059 0C54.4246 0 55.9011 1.4413 55.9223 3.227L55.9228 3.2659V7.2358C78.7448 8.6008 97.0698 26.6477 98.8701 49.3494H102.459C104.403 49.2203 106.052 50.7054 106.052 52.6497C106.052 54.4684 104.611 55.9449 102.825 55.9661L102.786 55.9666H98.9213C98.2255 66.9591 93.6589 76.8994 86.5691 84.4403C86.5249 84.4924 86.4772 84.5426 86.4256 84.5912L86.3746 84.6442L109.072 106.408C111.359 108.817 111.273 112.86 108.548 115.553C107.492 116.596 105.82 117.462 103.84 117.462C100.402 117.462 98.2038 114.456 96.5891 112.009L81.0771 89.6699C81.0063 89.705 80.8672 89.7119 80.6862 89.7097C73.94 94.7833 65.7498 98.0405 56.841 98.7516V103.093C56.9701 105.038 55.485 106.686 53.5407 106.686C51.722 106.686 50.2455 105.245 50.2243 103.459L50.2238 103.42V98.8063C27.0187 97.3492 8.4932 78.6439 7.3252 55.3618H3.5931C1.6485 55.4909 0 54.0058 0 52.0615C0 50.2428 1.4413 48.7663 3.227 48.7451ZM13.984 48.7446H19.9025V55.3618H13.8222C14.9749 75.0612 30.602 90.8713 50.2238 92.3083V86.7835H56.841V92.2432C75.895 90.4683 91.0093 75.1231 92.4234 55.9666H86.1495V49.3494H92.3615C90.5919 30.2318 75.1616 15.0759 55.9228 13.7338V19.9025H49.3056V13.8211C30.7622 15.6136 15.9819 30.2623 13.984 48.7446ZM147.671 106.625C147.681 101.946 147.663 97.2053 147.641 92.473C147.632 90.397 147.638 88.0501 146.365 86.248C143.792 82.6048 136.032 85.4916 132.185 79.5603C131.661 78.7519 130.417 75.7953 131.012 75.1183C131.277 74.8171 131.532 74.5063 131.775 74.187C139.155 64.5223 136.545 47.8799 123.757 48.1284C110.71 48.6612 109.643 66.2391 118.396 75.1681C119.107 76.6032 117.667 78.8796 116.636 79.9662C114.724 81.9799 112.512 83.1624 109.848 84.0063C108.575 84.4097 105.552 85.2502 104.66 86.0475C102.44 88.0299 102.9 90.3454 103.076 92.932C103.148 93.9879 111.1 99.7479 112.188 100.393C126.594 107.565 132.294 106.625 147.671 106.625ZM145.039 81.4782L145.081 82.5736C148.49 83.1119 150.244 85.1459 150.254 88.4473L150.305 106.625C157.114 105.378 169.459 99.2854 171.842 93.1637C171.908 92.9939 171.9 92.7844 171.923 92.5112C171.968 91.9815 171.95 91.3507 171.944 90.9806C171.929 90.1555 171.914 89.7432 171.696 88.9393C170.305 83.8088 163.644 85.7567 159.905 82.5848C159.141 81.6375 157.135 78.2753 157.939 77.3607C158.174 77.0935 158.399 76.8179 158.616 76.5348C165.16 67.964 162.846 53.2054 151.505 53.4257C139.935 53.8982 138.989 69.4866 146.75 77.4048C147.439 78.7949 146.119 80.6669 145.039 81.4782Z" fill="black"/>
</svg>
