<svg width="20" height="20" viewBox="0 0 20 20" fill="none" xmlns="http://www.w3.org/2000/svg">
<path d="M10.3125 5.26719V5.9375H10.9375V5.26719C11.2984 5.15281 11.5625 4.81875 11.5625 4.42062C11.5625 4.08063 11.3738 3.775 11.0694 3.62281L10.4603 3.31813C10.3691 3.27281 10.3125 3.18125 10.3125 3.07938C10.3125 2.93219 10.4325 2.8125 10.5794 2.8125H10.6703C10.8175 2.8125 10.9375 2.93219 10.9375 3.07938V3.125H11.5625V3.07938C11.5625 2.68125 11.2984 2.34719 10.9375 2.23281V1.5625H10.3125V2.23281C9.95156 2.34719 9.6875 2.68125 9.6875 3.07938C9.6875 3.41938 9.87625 3.725 10.1806 3.87719L10.7897 4.18187C10.8809 4.22719 10.9375 4.31875 10.9375 4.42062C10.9375 4.56781 10.8175 4.6875 10.6706 4.6875H10.5797C10.4325 4.6875 10.3125 4.56781 10.3125 4.42062V4.375H9.6875V4.42062C9.6875 4.81875 9.95156 5.15281 10.3125 5.26719Z" fill="white"/>
<path d="M12.8125 5.26719V5.9375H13.4375V5.26719C13.7984 5.15281 14.0625 4.81875 14.0625 4.42062C14.0625 4.08063 13.8738 3.775 13.5694 3.62281L12.9603 3.31813C12.8691 3.27281 12.8125 3.18125 12.8125 3.07938C12.8125 2.93219 12.9325 2.8125 13.0794 2.8125H13.1703C13.3175 2.8125 13.4375 2.93219 13.4375 3.07938V3.125H14.0625V3.07938C14.0625 2.68125 13.7984 2.34719 13.4375 2.23281V1.5625H12.8125V2.23281C12.4516 2.34719 12.1875 2.68125 12.1875 3.07938C12.1875 3.41938 12.3762 3.725 12.6806 3.87719L13.2897 4.18187C13.3809 4.22719 13.4375 4.31875 13.4375 4.42062C13.4375 4.56781 13.3175 4.6875 13.1706 4.6875H13.0797C12.9325 4.6875 12.8125 4.56781 12.8125 4.42062V4.375H12.1875V4.42062C12.1875 4.81875 12.4516 5.15281 12.8125 5.26719Z" fill="white"/>
<path d="M15.3125 5.26719V5.9375H15.9375V5.26719C16.2984 5.15281 16.5625 4.81875 16.5625 4.42062C16.5625 4.08063 16.3738 3.775 16.0694 3.62281L15.4603 3.31813C15.3691 3.27281 15.3125 3.18125 15.3125 3.07938C15.3125 2.93219 15.4325 2.8125 15.5794 2.8125H15.6703C15.8175 2.8125 15.9375 2.93219 15.9375 3.07938V3.125H16.5625V3.07938C16.5625 2.68125 16.2984 2.34719 15.9375 2.23281V1.5625H15.3125V2.23281C14.9516 2.34719 14.6875 2.68125 14.6875 3.07938C14.6875 3.41938 14.8762 3.725 15.1806 3.87719L15.7897 4.18187C15.8809 4.22719 15.9375 4.31875 15.9375 4.42062C15.9375 4.56781 15.8175 4.6875 15.6706 4.6875H15.5797C15.4325 4.6875 15.3125 4.56781 15.3125 4.42062V4.375H14.6875V4.42062C14.6875 4.81875 14.9516 5.15281 15.3125 5.26719Z" fill="white"/>
<path d="M18.4375 4.09406V1.25C18.4375 0.733125 18.0169 0.3125 17.5 0.3125H8.75C8.23313 0.3125 7.8125 0.733125 7.8125 1.25V4.0625H1.875C1.01344 4.0625 0.3125 4.76344 0.3125 5.625V16.25C0.3125 17.1116 1.01344 17.8125 1.875 17.8125H7.16469C7.11531 18.2516 6.9675 18.6728 6.72 19.0441L6.70781 19.0625H5.3125V19.6875H14.6875V19.0625H13.2922L13.28 19.0441C13.0325 18.6728 12.8847 18.2516 12.8353 17.8125H18.125C18.9866 17.8125 19.6875 17.1116 19.6875 16.25V5.625C19.6875 4.87063 19.1497 4.23937 18.4375 4.09406ZM8.4375 5.9375V1.25C8.4375 1.07781 8.5775 0.9375 8.75 0.9375H17.5C17.6725 0.9375 17.8125 1.07781 17.8125 1.25V6.25C17.8125 6.42219 17.6725 6.5625 17.5 6.5625H12.9956L11.5356 8.0225C11.4703 8.0875 11.38 8.125 11.2878 8.125C11.0947 8.125 10.9375 7.96781 10.9375 7.77469V6.5625H8.75C8.5775 6.5625 8.4375 6.42219 8.4375 6.25V5.9375ZM7.8125 10.9375V11.5625H2.1875V10.9375H7.8125ZM2.8125 10.3125V7.1875H7.1875V10.3125H2.8125ZM2.1875 6.5625V5.9375H7.8125V6.25V6.5625H2.1875ZM7.8125 8.4375H10.5766C10.7547 8.62844 11.0066 8.75 11.2878 8.75C11.5447 8.75 11.7959 8.64594 11.9775 8.46438L12.0044 8.4375H17.5C17.6725 8.4375 17.8125 8.57781 17.8125 8.75C17.8125 8.92219 17.6725 9.0625 17.5 9.0625H7.8125V8.4375ZM8.22625 7.02719C8.37594 7.12844 8.55625 7.1875 8.75 7.1875H10.3125V7.77469C10.3125 7.7875 10.3159 7.79969 10.3162 7.8125H7.8125V7.1875C7.97188 7.1875 8.11594 7.12562 8.22625 7.02719ZM7.43094 19.0625C7.6325 18.6728 7.75656 18.25 7.79656 17.8125H12.2034C12.2434 18.25 12.3678 18.6728 12.5691 19.0625H7.43094ZM19.0625 16.25C19.0625 16.7669 18.6419 17.1875 18.125 17.1875H1.875C1.35812 17.1875 0.9375 16.7669 0.9375 16.25V15.3125H19.0625V16.25ZM2.1875 14.6875V13.75C2.1875 13.5778 2.3275 13.4375 2.5 13.4375H7.5C7.6725 13.4375 7.8125 13.5778 7.8125 13.75V14.6875H2.1875ZM19.0625 14.6875H8.4375V13.75C8.4375 13.2331 8.01687 12.8125 7.5 12.8125H2.5C1.98312 12.8125 1.5625 13.2331 1.5625 13.75V14.6875H0.9375V5.625C0.9375 5.10813 1.35812 4.6875 1.875 4.6875H7.8125V5.3125H2.1875C1.84281 5.3125 1.5625 5.59281 1.5625 5.9375V6.5625C1.5625 6.90719 1.84281 7.1875 2.1875 7.1875V10.3125C1.84281 10.3125 1.5625 10.5928 1.5625 10.9375V11.5625C1.5625 11.9072 1.84281 12.1875 2.1875 12.1875H7.8125C8.15719 12.1875 8.4375 11.9072 8.4375 11.5625V10.9375C8.4375 10.5928 8.15719 10.3125 7.8125 10.3125V9.6875H17.5C18.0169 9.6875 18.4375 9.26688 18.4375 8.75C18.4375 8.23313 18.0169 7.8125 17.5 7.8125H12.6294L13.2544 7.1875H17.5C18.0169 7.1875 18.4375 6.76687 18.4375 6.25V4.745C18.8003 4.87437 19.0625 5.21812 19.0625 5.625V14.6875Z" fill="white"/>
<path d="M11.5625 15.9375H12.1875V16.5625H11.5625V15.9375Z" fill="white"/>
<path d="M10.3125 15.9375H10.9375V16.5625H10.3125V15.9375Z" fill="white"/>
<path d="M9.0625 15.9375H9.6875V16.5625H9.0625V15.9375Z" fill="white"/>
<path d="M7.8125 15.9375H8.4375V16.5625H7.8125V15.9375Z" fill="white"/>
<path d="M14.0625 14.0625H18.4375V10.3125H14.0625V14.0625ZM14.6875 10.9375H17.8125V13.4375H14.6875V10.9375Z" fill="white"/>
<path d="M9.6875 10.3125H13.4375V10.9375H9.6875V10.3125Z" fill="white"/>
<path d="M12.8125 11.5625H13.4375V12.1875H12.8125V11.5625Z" fill="white"/>
<path d="M9.6875 11.5625H12.1875V12.1875H9.6875V11.5625Z" fill="white"/>
<path d="M9.6875 12.8125H13.4375V13.4375H9.6875V12.8125Z" fill="white"/>
</svg>
