<svg width="172" height="136" viewBox="0 0 172 136" fill="none" xmlns="http://www.w3.org/2000/svg">
<path fill-rule="evenodd" clip-rule="evenodd" d="M111.728 68.6832L138.88 48.4294L166.179 68.83V97.156H111.728V68.6832ZM107.912 100.825H169.555V66.7753L138.88 43.8796L108.177 66.5983L107.912 100.825ZM127.391 44.5845V39.7089H119.528V50.0892L105.53 60.6268V65.9742C105.997 65.8494 107.195 64.8433 107.665 64.4914L138.873 41.4389L171.744 65.6597V60.3122L138.873 36.0915L127.391 44.5845ZM3.227 48.7451L3.2659 48.7446H7.4649C9.5073 26.6775 27.1778 9.1429 49.3056 7.3105V3.5931C49.1765 1.6485 50.6616 0 52.6059 0C54.4246 0 55.9011 1.4413 55.9223 3.227L55.9228 3.2659V7.2358C78.7448 8.6008 97.0698 26.6477 98.8701 49.3494H102.459C104.403 49.2203 106.052 50.7054 106.052 52.6497C106.052 54.4684 104.611 55.9449 102.825 55.9661L102.786 55.9666H98.9213C98.2255 66.9591 93.6589 76.8994 86.5691 84.4403C86.5249 84.4924 86.4772 84.5426 86.4256 84.5912L86.3746 84.6442L109.072 106.407C111.359 108.817 111.273 112.86 108.548 115.552C107.492 116.596 105.82 117.462 103.84 117.462C100.402 117.462 98.2038 114.455 96.5891 112.009L81.0771 89.6699C81.0063 89.705 80.8672 89.7119 80.6862 89.7097C73.94 94.7833 65.7498 98.0405 56.841 98.7516V103.093C56.9701 105.037 55.485 106.686 53.5407 106.686C51.722 106.686 50.2455 105.245 50.2243 103.459L50.2238 103.42V98.8063C27.0187 97.3492 8.4932 78.6439 7.3252 55.3618H3.5931C1.6485 55.4909 0 54.0058 0 52.0615C0 50.2428 1.4413 48.7663 3.227 48.7451ZM13.984 48.7446H19.9025V55.3618H13.8222C14.9749 75.0612 30.602 90.8713 50.2238 92.3083V86.7835H56.841V92.2432C75.895 90.4683 91.0093 75.1231 92.4234 55.9666H86.1495V49.3494H92.3615C90.5919 30.2318 75.1616 15.0759 55.9228 13.7338V19.9025H49.3056V13.8211C30.7622 15.6136 15.9819 30.2623 13.984 48.7446ZM77.5288 116.137C77.5541 117.274 78.8052 119.795 79.2602 120.812C79.3628 121.041 79.3991 121.099 79.4854 121.27C80.4252 123.136 81.626 124.818 82.9674 126.415L84.1497 127.709C84.2192 127.786 84.1585 127.725 84.2316 127.798L86.6898 129.952C87.8021 130.783 88.9076 131.57 90.1383 132.226C91.4382 132.919 92.715 133.527 94.0937 134.078C94.4049 134.202 94.755 134.322 95.0958 134.442C96.2318 134.845 97.322 135.098 98.5406 135.353C98.9394 135.436 99.3452 135.509 99.766 135.579C103.797 136.253 108.304 136.024 112.103 134.922L113.575 134.515C114.517 134.2 115.34 133.895 116.261 133.529C116.713 133.35 117.019 133.141 117.48 132.954C119.637 132.081 122.493 130.125 124.173 128.63C124.379 128.446 124.444 128.351 124.665 128.182C125.757 127.348 126.867 125.941 127.765 124.877L128.581 123.814C129.665 122.379 130.516 120.817 131.326 119.213L132.382 116.597C133.212 114.103 133.735 111.548 133.802 108.87L133.545 104.007C133.315 104.173 133.414 104.241 133.451 104.605C133.491 104.988 133.545 105.14 133.548 105.541C133.552 105.909 133.548 106.166 133.584 106.512L133.592 107.604C133.585 107.721 133.551 107.882 133.545 108.186C133.501 110.334 132.997 112.474 132.319 114.483C131.954 115.564 131.473 116.546 130.954 117.56C130.25 118.936 129.373 120.147 128.429 121.355C128.357 121.448 128.314 121.517 128.251 121.605C128.118 121.79 128.061 121.84 127.888 122.01C127.134 122.751 126.488 123.633 125.641 124.29C125.314 124.544 125.113 124.739 124.81 124.996C123.56 126.06 121.762 127.232 120.235 127.937L118.175 128.866C117.954 128.966 117.858 128.972 117.596 129.056C116.297 129.471 114.907 129.975 113.541 130.21C108.106 131.143 103.546 130.595 98.4975 128.476L97.6877 128.09C96.1202 127.3 94.4923 126.349 93.1773 125.171L91.4324 123.585C91.352 123.51 91.3362 123.497 91.2611 123.414C90.6825 122.776 90.0523 122.144 89.5953 121.407C89.4134 121.114 89.2384 120.922 89.0568 120.665C88.7289 120.201 88.382 119.68 88.0899 119.155L87.2489 117.519C86.8552 116.551 86.0669 114.846 85.9825 113.831C87.4094 113.799 88.9552 112.843 90.4228 112.72L89.7324 111.788C89.7207 111.775 89.7041 111.756 89.6923 111.743C89.6805 111.73 89.6639 111.711 89.652 111.698L88.9496 110.948C88.6339 110.638 88.4915 110.398 88.1821 110.093C88.0268 109.939 87.8966 109.827 87.755 109.666C87.5822 109.469 87.5649 109.395 87.3718 109.195L85.0432 106.655C84.5861 106.056 83.9654 105.478 83.442 104.925L80.3936 101.568C80.3776 101.549 80.3317 101.494 80.3156 101.475C80.167 101.302 80.0922 101.239 79.9413 101.081L78.7603 99.785C78.5187 99.472 78.2659 99.0725 77.8704 98.9668C77.8605 99.4099 77.6739 99.8559 77.5796 100.299C77.1881 102.14 76.5074 105.568 76.0672 107.158L74.2612 115.346C73.9492 117.06 73.3656 117.22 74.8299 116.855C75.7704 116.62 76.6241 116.348 77.5288 116.137ZM133.46 103.922C133.46 103.509 133.375 103.417 133.375 103.153H133.289C133.289 103.329 133.305 103.453 133.315 103.602C133.337 103.906 133.15 103.694 133.46 103.922ZM133.289 102.896V102.555H133.204C133.204 102.602 133.202 102.694 133.21 102.72C133.253 102.871 133.237 102.815 133.289 102.896ZM133.289 102.896V102.982L133.389 102.911L133.289 102.896ZM30.6806 58.8764V71.5739C30.6806 73.526 33.1958 72.7993 35.2363 73.5861C35.8386 73.8183 36.2589 74.0081 36.8315 74.2528C37.3448 74.4724 37.8151 74.7357 38.3218 74.9518L49.5707 80.2682C53.4425 81.8415 53.6673 82.6173 58.2863 82.0306C62.2609 81.5259 65.8783 80.8112 69.6999 80.3089C71.8096 80.0315 72.7868 80.1015 74.7571 78.7983C76.0742 77.9273 77.3401 76.9969 78.6833 76.1571C80.3449 75.118 81.7806 74.1301 83.1676 72.7601C83.6243 72.309 83.9504 71.783 84.0903 71.0553C84.2528 70.2097 84.0786 69.7643 83.076 69.5308C83.1991 69.07 84.1707 68.6272 84.1707 67.7063C84.1707 66.1872 82.5778 65.3711 80.9597 65.3711C78.9816 65.3711 76.6925 66.5929 75.3599 67.9444L74.6124 68.5833C73.2014 69.6649 71.6499 70.1956 69.6809 70.5113C66.9732 70.9457 63.1098 71.2436 60.3616 70.7179C58.7067 70.4014 56.8887 69.4277 55.1371 68.7908C55.0399 68.7556 55.0473 68.7621 54.9278 68.7082L54.6891 68.5819C55.1804 68.5711 56.2954 68.3631 57.4621 68.3631L60.4119 68.5513C61.3169 68.6881 62.5537 68.6026 63.5192 68.6546C63.8399 68.672 63.8245 68.7199 64.1733 68.7303C64.4374 68.7381 64.7169 68.7177 64.9809 68.7257L68.6471 69.0731C71.5741 69.658 73.2976 66.6343 73.2976 65.0063C73.2976 63.9674 72.1693 62.8338 71.2059 62.3545C69.1886 61.3506 64.9162 60.6744 62.4857 60.4205C60.8486 60.2495 58.6487 60.2381 57.1142 59.8811C56.3567 59.7047 53.2734 58.1 52.21 57.6338C50.0368 56.6809 47.0076 55.8845 44.4727 55.8845C43.4036 55.8845 41.7795 55.845 40.7712 55.9777C40.2863 56.0414 39.5911 56.086 39.1233 56.154C38.0638 56.3081 31.6166 57.3201 30.9582 58.2054C30.8566 58.342 30.6806 58.6643 30.6806 58.8764ZM21.7048 56.0303V74.6388C21.7048 75.0309 21.9342 75.4582 22.1707 75.6324C22.4573 75.8436 22.9101 75.9524 23.3832 75.9524H27.2509C28.2761 75.9524 28.9292 75.5185 28.9292 74.493V56.0303C28.9292 55.306 28.3298 54.7169 27.6157 54.7169H23.0182C22.2873 54.7169 21.7048 55.2995 21.7048 56.0303ZM42.5754 40.5598C42.5754 44.7285 43.8705 48.7783 46.1074 52.1336C46.2976 52.4188 46.4163 52.5902 46.6202 52.8614L47.7248 54.2379C48.0627 54.6806 48.0106 54.5758 48.5727 54.7035C51.2098 55.3018 51.7819 55.5346 54.1305 56.6619C56.5136 57.8057 56.9333 58.1829 59.8704 58.5116C61.3668 58.679 62.949 58.7714 64.4469 58.9702C65.1171 59.0591 65.8235 59.2207 66.5725 59.3258L68.7154 59.7369C69.0727 59.8216 69.3484 59.8938 69.6966 59.9966C70.1804 60.1395 70.1995 60.209 70.6051 60.0571C73.6536 58.9151 76.6943 56.9032 78.8612 54.4427C80.6685 52.3904 81.5948 50.7524 82.7101 48.221L83.3372 46.3671C85.47 38.9457 83.4291 31.2212 78.0704 25.8625C77.8444 25.6365 77.6635 25.4802 77.439 25.2535L76.0605 24.0778C69.787 19.3836 61.754 18.3849 54.64 21.6836C53.4784 22.2223 52.3859 22.864 51.4056 23.5572C50.83 23.964 49.7516 24.8031 49.2705 25.2898C47.6057 26.974 46.5297 28.039 45.3005 30.2956C44.9827 30.8789 44.6563 31.4286 44.4099 32.032C43.2593 34.8487 42.5754 37.3111 42.5754 40.5598ZM63.7035 38.9958H60.682V31.7655C62.9135 31.7655 66.8579 31.4457 68.3472 32.5176C70.3999 33.9951 70.1603 37.2671 67.952 38.3883C66.8708 38.9372 65.2607 38.9958 63.7035 38.9958ZM55.3941 39.4276H53.8833V42.7728H55.3941V45.5786H53.8833V48.9241H55.3941V53.1328H60.682V48.9241H68.1281V45.5786H60.682V43.4203C63.3406 43.4203 66.4842 43.5299 69.0088 43.114C72.341 42.565 75.1427 39.6183 75.1427 35.9743V35.559C75.1406 33.9693 75.0992 32.8641 74.3529 31.3682C74.0561 30.7735 73.9564 30.6024 73.5581 30.1125C71.4829 27.5603 69.1124 27.341 65.7539 27.341H55.3941V39.4276Z" fill="black"/>
</svg>
