<svg width="171" height="138" viewBox="0 0 171 138" fill="none" xmlns="http://www.w3.org/2000/svg">
<path fill-rule="evenodd" clip-rule="evenodd" d="M64.0968 81.7474C64.106 77.0686 64.088 72.328 64.0666 67.5957C64.0573 65.5197 64.0629 63.1728 62.7903 61.3707C60.2178 57.7275 52.4571 60.6143 48.6103 54.683C48.0861 53.8746 46.8427 50.918 47.4378 50.241C47.7026 49.9398 47.9569 49.629 48.2007 49.3097C55.5801 39.645 52.9704 23.0026 40.1821 23.2511C27.1352 23.7839 26.0687 41.3618 34.821 50.2908C35.5321 51.7259 34.0927 54.0023 33.0611 55.0889C31.1493 57.1026 28.9375 58.2851 26.2734 59.129C24.9999 59.5324 21.9776 60.3729 21.0848 61.1702C18.8649 63.1526 19.3258 65.4681 19.5014 68.0547C19.5731 69.1106 27.5249 74.8706 28.613 75.5152C43.0191 82.6881 48.7196 81.7474 64.0968 81.7474ZM61.4644 56.6009L61.5064 57.6963C64.9152 58.2346 66.6698 60.2686 66.6791 63.57L66.73 81.7474C73.5389 80.5003 85.8841 74.4081 88.2673 68.2864C88.3334 68.1166 88.3257 67.9071 88.3486 67.6339C88.3932 67.1042 88.3757 66.4734 88.369 66.1033C88.3542 65.2782 88.3392 64.8659 88.1213 64.062C86.7302 58.9315 80.0692 60.8794 76.3307 57.7075C75.5668 56.7602 73.5605 53.398 74.3644 52.4834C74.5993 52.2162 74.8248 51.9406 75.041 51.6575C81.5851 43.0867 79.2709 28.3281 67.9301 28.5484C56.3599 29.0209 55.4141 44.6093 63.1757 52.5275C63.8645 53.9176 62.5442 55.7896 61.4644 56.6009ZM77.615 117.695C77.6403 118.832 78.8914 121.353 79.3464 122.37C79.449 122.599 79.4853 122.657 79.5716 122.828C80.5114 124.693 81.7122 126.375 83.0536 127.973L84.2359 129.267C84.3054 129.344 84.2447 129.283 84.3178 129.356L86.776 131.51C87.8883 132.34 88.9938 133.127 90.2245 133.783C91.5244 134.477 92.8012 135.084 94.1799 135.635C94.4911 135.76 94.8412 135.879 95.182 136C96.318 136.402 97.4082 136.655 98.6268 136.91C99.0256 136.994 99.4314 137.066 99.8522 137.137C103.883 137.811 108.39 137.582 112.189 136.479L113.661 136.073C114.603 135.758 115.426 135.452 116.348 135.087C116.799 134.908 117.105 134.699 117.566 134.512C119.723 133.638 122.579 131.682 124.259 130.188C124.466 130.004 124.531 129.908 124.751 129.74C125.843 128.906 126.954 127.499 127.851 126.435L128.667 125.371C129.752 123.936 130.602 122.375 131.412 120.771L132.468 118.154C133.298 115.661 133.821 113.106 133.888 110.428L133.632 105.564C133.401 105.731 133.5 105.798 133.537 106.163C133.577 106.545 133.631 106.697 133.635 107.099C133.638 107.467 133.634 107.724 133.67 108.07L133.679 109.162C133.671 109.278 133.637 109.44 133.631 109.744C133.587 111.892 133.084 114.032 132.405 116.041C132.04 117.121 131.559 118.104 131.04 119.118C130.337 120.494 129.459 121.704 128.515 122.913C128.443 123.005 128.4 123.075 128.337 123.162C128.204 123.348 128.147 123.398 127.974 123.568C127.22 124.308 126.574 125.191 125.727 125.848C125.4 126.102 125.199 126.296 124.896 126.554C123.647 127.617 121.848 128.79 120.322 129.495L118.261 130.424C118.041 130.524 117.944 130.53 117.682 130.613C116.383 131.028 114.993 131.533 113.627 131.767C108.192 132.701 103.632 132.153 98.5837 130.034L97.7739 129.648C96.2064 128.857 94.5785 127.906 93.2635 126.728L91.5186 125.142C91.4382 125.067 91.4224 125.055 91.3473 124.972C90.7687 124.334 90.1385 123.701 89.6815 122.965C89.4996 122.672 89.3246 122.479 89.143 122.222C88.8151 121.758 88.4682 121.238 88.1761 120.712L87.3351 119.076C86.9414 118.108 86.1531 116.404 86.0687 115.388C87.4956 115.357 89.0414 114.4 90.509 114.278L89.8186 113.346C89.8069 113.332 89.7903 113.313 89.7785 113.3C89.7667 113.287 89.7501 113.268 89.7382 113.255L89.0358 112.506C88.7201 112.195 88.5777 111.956 88.2683 111.65C88.113 111.497 87.9828 111.384 87.8412 111.223C87.6684 111.027 87.6511 110.952 87.458 110.752L85.1294 108.213C84.6723 107.613 84.0516 107.036 83.5282 106.483L80.4798 103.126C80.4638 103.107 80.4179 103.052 80.4018 103.033C80.2532 102.859 80.1784 102.797 80.0275 102.638L78.8465 101.343C78.6049 101.03 78.3521 100.63 77.9566 100.524C77.9467 100.967 77.7601 101.413 77.6658 101.857C77.2743 103.697 76.5936 107.126 76.1534 108.715L74.3474 116.903C74.0354 118.618 73.4518 118.778 74.9161 118.412C75.8566 118.177 76.7103 117.906 77.615 117.695ZM133.546 105.479C133.546 105.066 133.461 104.975 133.461 104.71H133.375C133.375 104.886 133.391 105.011 133.402 105.16C133.423 105.464 133.236 105.252 133.546 105.479ZM133.375 104.454V104.112H133.29C133.29 104.16 133.288 104.252 133.296 104.277C133.339 104.428 133.324 104.372 133.375 104.454ZM133.375 104.454V104.539L133.475 104.468L133.375 104.454ZM110.836 68.0992L137.988 47.8454L165.286 68.246V96.572H110.836V68.0992ZM107.02 100.241H168.662V66.1913L137.988 43.2956L107.285 66.0143L107.02 100.241ZM126.499 44.0005V39.1249H118.635V49.5052L104.637 60.0428V65.3902C105.105 65.2654 106.303 64.2593 106.772 63.9074L137.98 40.8549L170.851 65.0757V59.7282L137.98 35.5075L126.499 44.0005ZM3.227 48.7451L3.2659 48.7446H7.4649C9.5073 26.6775 27.1778 9.1429 49.3056 7.3105V3.5931C49.1765 1.6485 50.6616 0 52.6059 0C54.4246 0 55.9011 1.4413 55.9223 3.227L55.9228 3.2659V7.2358C78.7448 8.6008 97.0698 26.6477 98.8701 49.3494H102.459C104.403 49.2203 106.052 50.7054 106.052 52.6497C106.052 54.4684 104.611 55.9449 102.825 55.9661L102.786 55.9666H98.9213C98.2255 66.9591 93.6589 76.8994 86.5691 84.4403C86.5249 84.4924 86.4772 84.5426 86.4256 84.5912L86.3746 84.6442L109.072 106.408C111.359 108.817 111.273 112.86 108.548 115.553C107.492 116.596 105.82 117.462 103.84 117.462C100.402 117.462 98.2038 114.456 96.5891 112.009L81.0771 89.6699C81.0063 89.705 80.8672 89.7119 80.6862 89.7097C73.94 94.7833 65.7498 98.0405 56.841 98.7516V103.093C56.9701 105.038 55.485 106.686 53.5407 106.686C51.722 106.686 50.2455 105.245 50.2243 103.459L50.2238 103.42V98.8063C27.0187 97.3492 8.4932 78.6439 7.3252 55.3618H3.5931C1.6485 55.4909 0 54.0058 0 52.0615C0 50.2428 1.4413 48.7663 3.227 48.7451ZM13.984 48.7446H19.9025V55.3618H13.8222C14.9749 75.0612 30.602 90.8713 50.2238 92.3083V86.7835H56.841V92.2432C75.895 90.4683 91.0093 75.1231 92.4234 55.9666H86.1495V49.3494H92.3615C90.5919 30.2318 75.1616 15.0759 55.9228 13.7338V19.9025H49.3056V13.8211C30.7622 15.6136 15.9819 30.2623 13.984 48.7446Z" fill="black"/>
</svg>
