<svg width="20" height="20" viewBox="0 0 20 20" fill="none" xmlns="http://www.w3.org/2000/svg">
<g clip-path="url(#clip0)">
<path d="M19.7822 14.3971L17.9204 13.7195C17.7489 13.6574 17.5596 13.7461 17.4975 13.9176L17.3845 14.2277L15.2277 13.4412C15.1735 13.4209 15.1149 13.4159 15.0579 13.4263L10.5705 14.2188C10.1638 14.2912 9.81437 14.5495 9.62541 14.9168L7.56697 14.1659C7.23822 14.045 6.87448 14.0611 6.55766 14.2106C6.15507 14.3984 5.87372 14.7754 5.8081 15.2147C5.72587 15.8506 6.10251 16.4567 6.70922 16.6645L13.4898 19.1325C13.5259 19.1459 13.5643 19.1528 13.6028 19.1526C13.6388 19.1526 13.6744 19.1467 13.7084 19.1352L15.6021 18.4959L15.8036 18.5691L15.6906 18.8795C15.6285 19.0511 15.7172 19.2405 15.8888 19.3026L17.7508 19.9801C17.7868 19.9935 17.825 20.0004 17.8634 20.0002C18.0022 20.0004 18.1263 19.9135 18.1737 19.7831L19.9807 14.8181C20.0414 14.647 19.9528 14.459 19.7822 14.3971ZM15.5004 17.8341L13.6067 18.4734L6.93494 16.0447C6.62635 15.942 6.42948 15.6396 6.46076 15.3157C6.48865 15.1183 6.6041 14.9442 6.775 14.8415C6.94591 14.7389 7.15389 14.7191 7.34108 14.7875L9.48353 15.567C9.48465 15.628 9.48949 15.6887 9.49836 15.7489C9.62783 16.4651 10.3102 16.9433 11.0275 16.8204L14.745 16.165L14.63 15.5145L10.9143 16.17C10.5565 16.2308 10.216 15.9935 10.1493 15.6367C10.1355 15.5614 10.136 15.484 10.1509 15.4088C10.1533 15.3979 10.1552 15.3869 10.1565 15.3758C10.1609 15.3476 10.1684 15.32 10.1792 15.2936C10.2603 15.0719 10.4532 14.9102 10.6855 14.8686L15.085 14.0927L17.1588 14.8471L16.0294 17.951L15.719 17.8384C15.6487 17.8123 15.5716 17.8107 15.5004 17.8341ZM17.6646 19.2478L16.4234 18.796L18.0043 14.4519L19.2456 14.9036L17.6646 19.2478Z" fill="white"/>
<path d="M7.75583 5.3262C7.86241 5.71638 8.05895 6.07625 8.32965 6.37663C8.32466 6.40307 8.32111 6.42967 8.3195 6.4566V8.25481C8.3195 8.80187 8.76288 9.24541 9.3101 9.24541V12.5474C9.3093 12.6732 9.38024 12.7885 9.49262 12.8446L10.153 13.1748C10.2461 13.2212 10.3554 13.2212 10.4482 13.1748L11.1086 12.8446C11.2212 12.7885 11.292 12.6732 11.2913 12.5474V9.24541C11.8384 9.24541 12.2819 8.80187 12.2819 8.25481V6.4566C12.2801 6.42774 12.2764 6.39904 12.271 6.37066C12.4915 6.12801 12.6634 5.84521 12.7772 5.53758C13.2648 5.61948 13.7528 5.39553 14.0089 4.97262C14.3228 4.4533 14.2368 3.78596 13.8015 3.36321L11.1143 0.676613C10.6819 0.241933 10.0934 -0.00184851 9.48004 -0.000236194H6.00809C5.96326 -0.000397425 5.91909 0.00879276 5.87797 0.0265282L3.63057 0.990369H3.36647V0.329966C3.36647 0.147613 3.21862 -0.000236194 3.03627 -0.000236194H0.394655C0.212302 -0.000236194 0.0644531 0.147613 0.0644531 0.329966V5.61319C0.0644531 5.79555 0.212302 5.9434 0.394655 5.9434H3.03627C3.21862 5.9434 3.36647 5.79555 3.36647 5.61319V4.95279H3.41468C3.65104 5.74524 4.71291 6.2736 5.67788 6.2736C6.4784 6.29004 7.24312 5.94146 7.75583 5.3262ZM2.70607 5.28299H0.724857V0.660167H2.70607V5.28299ZM10.6309 12.3433L10.3007 12.5084L9.97051 12.3433V9.24541H10.6309V12.3433ZM11.6215 8.25481C11.6215 8.43716 11.4737 8.58501 11.2913 8.58501H9.3101C9.12775 8.58501 8.9799 8.43716 8.9799 8.25481V6.90692C9.20192 7.03622 9.44199 7.13199 9.69206 7.19084C9.80621 7.46865 10.0924 7.63536 10.3902 7.59763C10.6881 7.56006 10.9239 7.32741 10.9653 7.02993C11.0067 6.73262 10.8436 6.44434 10.5674 6.32664C10.291 6.20911 9.97018 6.29117 9.78461 6.52722C9.59838 6.47836 9.42022 6.40242 9.25625 6.30165C9.57452 6.10866 9.93084 5.98645 10.3007 5.9434C10.7747 6.00998 11.2268 6.18573 11.6215 6.4566V8.25481ZM11.8674 5.83537C11.3953 5.53177 10.8589 5.34265 10.3007 5.28299C9.74349 5.34233 9.20788 5.53113 8.73644 5.83408C8.53506 5.57772 8.40173 5.27461 8.34884 4.95279H9.97051C10.4542 4.95763 10.8998 4.69095 11.1241 4.2624L12.0488 5.1869C12.0857 5.2214 12.1247 5.25349 12.1657 5.28299C12.0976 5.48244 11.9969 5.66914 11.8674 5.83537ZM11.2757 3.47978C11.2449 3.20956 11.1304 2.95562 10.9485 2.75327C11.6954 3.01269 12.2166 3.69116 12.2747 4.47958L11.2757 3.47978ZM7.32889 4.62259C7.32889 5.12257 6.51097 5.61319 5.67788 5.61319C4.8448 5.61319 4.02687 5.12257 4.02687 4.62259C4.02687 4.44024 3.87903 4.29239 3.69667 4.29239H3.36647V1.65077H3.69667C3.74133 1.65093 3.78567 1.64174 3.82679 1.62401L6.07403 0.660167H9.47843C9.91698 0.658555 10.3381 0.832685 10.6474 1.14354L13.334 3.83014C13.5511 4.03297 13.6 4.35865 13.4518 4.6163C13.3415 4.79091 13.1487 4.89571 12.9423 4.8933C12.937 4.8933 12.932 4.8933 12.9267 4.8933C12.9367 4.80349 12.9418 4.71304 12.9423 4.62259C12.9407 3.16441 11.7589 1.98259 10.3007 1.98097C9.857 1.98162 9.42071 2.09529 9.03295 2.31118H6.33829V2.97158H9.97051C10.3352 2.97158 10.6309 3.26728 10.6309 3.63198C10.6309 3.99669 10.3352 4.29239 9.97051 4.29239H7.65909C7.47674 4.29239 7.32889 4.44024 7.32889 4.62259Z" fill="white"/>
</g>
<defs>
<clipPath id="clip0">
<rect width="20" height="20" fill="white"/>
</clipPath>
</defs>
</svg>
