<svg width="30" height="30" viewBox="0 0 30 30" fill="none" xmlns="http://www.w3.org/2000/svg">
<g clip-path="url(#clip0)">
<path d="M15.8232 22.7577L29.6607 8.88183C30.1139 8.42721 30.1131 7.69116 29.6584 7.23729C29.2038 6.78378 28.4673 6.78495 28.0139 7.23963L14.9999 20.2896L1.98609 7.23917C1.53258 6.78454 0.796585 6.78337 0.3419 7.23682C0.113972 7.46434 5.72205e-06 7.76241 5.72205e-06 8.06047C5.72205e-06 8.35777 0.113209 8.65467 0.339556 8.88178L14.1767 22.7577C14.3946 22.9767 14.691 23.0996 14.9999 23.0996C15.3089 23.0996 15.605 22.9763 15.8232 22.7577Z" fill="#2F2D2D"/>
</g>
<defs>
<clipPath id="clip0">
<rect width="30" height="30" fill="white" transform="translate(30) rotate(90)"/>
</clipPath>
</defs>
</svg>
