<svg width="65" height="65" viewBox="0 0 65 65" fill="none" xmlns="http://www.w3.org/2000/svg">
<path d="M62.8323 30.0714L59.0769 33.8269C58.8389 34.065 58.7051 34.3879 58.7051 34.7246C58.7051 37.4138 57.6579 39.942 55.7562 41.8435L35.6971 61.9028C34.9527 62.647 33.7416 62.6471 32.9972 61.9028C32.6367 61.5422 32.438 61.0629 32.438 60.5528C32.438 60.1089 32.5888 59.6882 32.8656 59.349L44.4813 47.7332C44.9771 47.2375 44.9771 46.4336 44.4813 45.9378C44.4802 45.9365 44.4788 45.9356 44.4775 45.9343C44.4764 45.9331 44.4754 45.9318 44.4741 45.9305C43.9782 45.435 43.1745 45.435 42.6786 45.9305L28.6722 59.9515C28.3117 60.3122 27.8322 60.5107 27.3223 60.5107C26.8125 60.5107 26.333 60.3121 25.9724 59.9515C25.2751 59.2542 25.2312 58.1474 25.8403 57.3983L39.9935 43.2451C40.4892 42.7493 40.4892 41.9455 39.9935 41.4496C39.4977 40.954 38.6938 40.954 38.198 41.4496L21.7222 57.9254C21.3617 58.286 20.8822 58.4846 20.3723 58.4846C19.8624 58.4846 19.383 58.2859 19.0223 57.9254C18.6618 57.5648 18.4632 57.0854 18.4632 56.5755C18.4632 56.0655 18.6618 55.586 19.0223 55.2255L35.5095 38.7529C36.0052 38.2571 36.0052 37.4533 35.5095 36.9574C35.0136 36.4619 34.2099 36.4619 33.7141 36.9574L18.997 51.66C18.2479 52.2687 17.1413 52.225 16.444 51.5277C16.0834 51.1672 15.8848 50.6877 15.8848 50.1777C15.8848 49.6677 16.0835 49.1884 16.444 48.8278L21.261 44.0107C21.7567 43.515 21.7567 42.7111 21.2609 42.2153C20.7651 41.7196 19.9613 41.7196 19.4655 42.2153L17.0014 44.6795L12.1068 39.7849C9.02545 36.7035 6.81482 32.8463 5.71389 28.6302C5.65689 28.4119 5.54276 28.2128 5.38331 28.0532L2.1671 24.837C1.67122 24.3415 0.867486 24.3414 0.371737 24.837C-0.124012 25.3328 -0.124139 26.1366 0.371737 26.6325L3.34737 29.6081C4.59049 34.129 6.99357 38.2623 10.3113 41.5804L15.206 46.475L14.6487 47.0323C13.8085 47.8724 13.3458 48.9894 13.3458 50.1776C13.3458 51.3657 13.8085 52.4828 14.6487 53.323C15.1776 53.8518 15.8079 54.2185 16.4774 54.4248C16.1168 55.0757 15.924 55.8105 15.924 56.5754C15.924 57.7635 16.3867 58.8806 17.2268 59.7206C18.067 60.5608 19.184 61.0235 20.3722 61.0235C21.3834 61.0235 22.3424 60.6873 23.1238 60.0696C23.337 60.6826 23.6879 61.2579 24.1768 61.7469C25.017 62.5871 26.1341 63.0498 27.3222 63.0498C28.3668 63.0498 29.3562 62.6919 30.151 62.0346C30.3689 62.6533 30.7241 63.2205 31.2017 63.6981C32.069 64.5652 33.208 64.9988 34.347 64.9988C35.4861 64.9988 36.6251 64.5652 37.4924 63.6981L39.1166 62.0739L40.2524 63.2098C41.1196 64.0768 42.2587 64.5104 43.3977 64.5104C44.5367 64.5104 45.6758 64.0768 46.543 63.2098C47.2504 62.5024 47.6888 61.5985 47.8102 60.6213C48.0596 60.6639 48.3117 60.6864 48.5643 60.6864C49.7034 60.6864 50.8424 60.2529 51.7096 59.3858C52.5498 58.5457 53.0125 57.4286 53.0125 56.2405C53.0125 56.2236 53.0115 56.2069 53.0113 56.1901C53.0274 56.1902 53.0434 56.1912 53.0595 56.1912C54.1987 56.1912 55.3377 55.7577 56.2049 54.8906C57.0451 54.0504 57.5077 52.9333 57.5077 51.7452C57.5077 51.5298 57.4921 51.3169 57.4621 51.1073C58.4715 51.0013 59.407 50.5574 60.1346 49.8297C60.9747 48.9897 61.4375 47.8726 61.4375 46.6845C61.4375 45.4963 60.9747 44.3793 60.1346 43.5391L58.7917 42.1962C60.2776 40.1854 61.1275 37.7907 61.2327 35.2617L64.6275 31.867C65.1233 31.3712 65.1233 30.5674 64.6274 30.0716C64.1319 29.5758 63.3281 29.5758 62.8323 30.0714ZM44.7479 61.4143C44.0035 62.1583 42.7924 62.1586 42.048 61.4143L40.9243 60.2905L43.6242 57.5906L44.2672 58.2335L44.7482 58.7145C45.1086 59.0749 45.3072 59.5543 45.3072 60.0641C45.307 60.5744 45.1084 61.0538 44.7479 61.4143ZM50.4736 56.2405C50.4736 56.7504 50.2751 57.2299 49.9144 57.5905C49.1701 58.3347 47.9589 58.3349 47.2145 57.5905L46.5437 56.9196C46.5436 56.9194 46.5434 56.9193 46.5432 56.9191L45.4194 55.7954L48.1192 53.0955L49.9143 54.8906C50.2751 55.2511 50.4736 55.7305 50.4736 56.2405ZM54.4097 53.0951C53.6652 53.8393 52.4539 53.8394 51.7098 53.0951L49.9146 51.3L52.6145 48.6001L54.4097 50.3952C54.7702 50.7557 54.9688 51.2351 54.9688 51.7451C54.9689 52.2552 54.7702 52.7345 54.4097 53.0951ZM58.3395 48.0343C57.9789 48.3949 57.4994 48.5935 56.9896 48.5935C56.4797 48.5935 56.0002 48.3949 55.6396 48.0343L54.41 46.8047L57.1099 44.1048L58.3395 45.3344C58.7 45.6949 58.8987 46.1743 58.8987 46.6844C58.8986 47.1943 58.7 47.6737 58.3395 48.0343Z" fill="white"/>
<path d="M15.0639 16.8607C15.3019 17.0988 15.6249 17.2326 15.9616 17.2326H22.5138C27.2507 17.2326 31.8843 18.8771 35.5611 21.8634L45.877 30.2414C43.3546 32.003 39.9674 32.2438 37.2036 30.7469L30.1843 26.946C29.8866 26.7847 29.5365 26.7491 29.2121 26.8473C24.7787 28.1886 20.088 28.2009 15.6474 26.8821L15.5228 26.8453C14.8505 26.646 14.1441 27.0292 13.9448 27.7015C13.7455 28.3737 14.1289 29.0802 14.8011 29.2795L14.9253 29.3163C19.6718 30.7256 24.6763 30.7621 29.4341 29.4271L31.2634 30.4177L27.5419 34.1392C27.0462 34.635 27.0462 35.4388 27.542 35.9347C27.79 36.1825 28.1148 36.3065 28.4397 36.3065C28.7646 36.3065 29.0896 36.1825 29.3374 35.9347L33.5928 31.6791L35.9948 32.9798C37.5878 33.8424 39.3326 34.2838 41.114 34.2838C41.6367 34.2838 42.1628 34.2457 42.6889 34.1693C45.0076 33.8317 47.109 32.7775 48.7659 31.1205C49.0201 30.8663 49.1545 30.5162 49.136 30.1572C49.1173 29.7983 48.9476 29.4639 48.6684 29.2373L38.4225 20.9162C41.4775 19.0246 44.9675 18.0141 48.58 17.9896C48.9136 17.9873 49.2331 17.8538 49.469 17.6178L64.6281 2.45888C65.1239 1.96313 65.1239 1.15927 64.6281 0.663395C64.1323 0.167899 63.3285 0.167899 62.8326 0.663395L48.0358 15.4603C43.8413 15.5875 39.8096 16.8926 36.3288 19.2476C32.345 16.3042 27.4801 14.6935 22.514 14.6935H16.4875L2.16718 0.373181C1.67143 -0.122441 0.867566 -0.122441 0.37169 0.373181C-0.124059 0.86893 -0.124059 1.67279 0.37169 2.16867L15.0639 16.8607Z" fill="white"/>
<path d="M23.5016 38.1786C23.2654 38.4147 23.1309 38.7423 23.1309 39.0762C23.1309 39.4113 23.2654 39.7376 23.5016 39.9736C23.739 40.2097 24.0665 40.3457 24.4004 40.3457C24.7343 40.3457 25.0605 40.2099 25.2979 39.9736C25.5341 39.7376 25.6699 39.4112 25.6699 39.0762C25.6699 38.7423 25.5341 38.4147 25.2979 38.1786C25.0618 37.9425 24.7343 37.8066 24.4004 37.8066C24.0654 37.8066 23.739 37.9425 23.5016 38.1786Z" fill="white"/>
</svg>
