<svg width="65" height="65" viewBox="0 0 65 65" fill="none" xmlns="http://www.w3.org/2000/svg">
<g clip-path="url(#clip0)">
<path d="M38.0085 49.4732V51.2223C38.0085 52.1264 38.7442 52.862 39.6482 52.862H46.3227C47.2267 52.862 47.9624 52.1264 47.9624 51.2223V49.4732C47.9624 48.5691 47.2267 47.8335 46.3227 47.8335H39.6482C38.7442 47.8335 38.0085 48.5691 38.0085 49.4732ZM39.9127 49.7376H46.0582V50.9579H39.9127V49.7376Z" fill="white"/>
<path d="M37.6598 24.6846C37.1338 24.6846 36.7077 25.1107 36.7077 25.6366V26.7879C36.7077 27.3138 37.1338 27.7399 37.6598 27.7399C38.1857 27.7399 38.6118 27.3138 38.6118 26.7879V25.6366C38.6118 25.1107 38.1857 24.6846 37.6598 24.6846Z" fill="white"/>
<path d="M26.388 25.6366V26.7879C26.388 27.3138 26.8141 27.7399 27.3401 27.7399C27.866 27.7399 28.2921 27.3138 28.2921 26.7879V25.6366C28.2921 25.1107 27.866 24.6846 27.3401 24.6846C26.8141 24.6846 26.388 25.1107 26.388 25.6366Z" fill="white"/>
<path d="M34.0671 30.6005C32.9834 31.4231 32.0167 31.4234 30.9325 30.6005C30.5134 30.2828 29.9165 30.3647 29.5985 30.7833C29.2807 31.2022 29.3627 31.7995 29.7813 32.1174C30.6707 32.792 31.5853 33.1296 32.4999 33.1296C33.4144 33.1296 34.329 32.7922 35.2182 32.1174C35.6371 31.7994 35.7188 31.2022 35.401 30.7833C35.0831 30.3644 34.486 30.2826 34.0671 30.6005Z" fill="white"/>
<path d="M47.5821 39.8921C45.7972 37.9407 43.508 36.5723 40.991 35.9168C41.4322 35.496 41.844 35.0403 42.2221 34.5522C43.043 34.4374 43.7211 33.8775 44.0055 33.1237H45.4522C46.4357 33.1237 47.2358 32.3236 47.2358 31.3401V29.1199C48.6804 28.4329 49.6817 26.9595 49.6817 25.2563V24.139C49.6817 22.5126 48.7689 21.0956 47.4288 20.3729V12.1061C47.4288 7.9934 44.4575 4.52702 40.5489 3.76449L40.7711 3.36387C41.2506 2.49927 41.1291 1.46953 40.4617 0.740256C39.7943 0.0111084 38.7792 -0.200883 37.8759 0.200504L31.776 2.90942C29.5154 3.91377 27.8789 3.51582 26.0703 3.60683C24.7075 3.60683 23.3498 3.93942 22.144 4.56853C21.6779 4.81175 21.4971 5.38679 21.7403 5.85305C21.9835 6.3193 22.5584 6.49981 23.0248 6.25672C23.9732 5.7619 24.9977 5.51094 26.0701 5.51094C27.7987 5.41447 29.8168 5.86333 32.5488 4.64965L38.6484 1.94061C38.8527 1.84946 38.9919 1.95482 39.0568 2.02578C39.1217 2.09674 39.2142 2.24463 39.1058 2.44025L38.1856 4.09936C38.023 4.39259 38.0266 4.74968 38.195 5.03948C38.3633 5.32929 38.6719 5.50917 39.007 5.51297C42.6007 5.55474 45.5244 8.51233 45.5244 12.106V19.8662C45.4848 19.865 45.4455 19.8631 45.4056 19.8631H44.7898V16.713C44.7898 16.3616 44.5964 16.0389 44.2865 15.8734C43.9769 15.7076 43.6009 15.7262 43.3088 15.9215C42.4852 16.4719 41.6473 16.9679 40.8185 17.3955C40.3511 17.6367 40.1679 18.211 40.409 18.6781C40.6502 19.1455 41.2246 19.3284 41.6916 19.0876C42.0888 18.8826 42.4876 18.6633 42.8856 18.431V27.0354C42.8856 27.968 42.7607 28.8829 42.5191 29.7692C42.3254 29.7145 42.122 29.6831 41.9111 29.6831H38.5999C37.3649 29.6831 36.3602 30.6877 36.3602 31.9227V32.3369C36.3602 33.572 37.3649 34.5766 38.5999 34.5766H39.6373C37.7244 36.3829 35.171 37.4217 32.4996 37.4217C26.7727 37.4217 22.1136 32.7626 22.1136 27.0356C22.1136 24.1612 22.1136 21.3016 22.1136 18.4314C27.3677 21.4951 32.694 22.2313 37.9684 20.6174C38.4712 20.4635 38.754 19.9313 38.6003 19.4285C38.4466 18.9257 37.9147 18.6427 37.4114 18.7966C34.8162 19.5907 32.1863 19.7553 29.5955 19.2859C26.9827 18.8127 24.3232 17.6807 21.6907 15.9216C21.3985 15.7264 21.0227 15.7077 20.713 15.8735C20.4032 16.039 20.2097 16.3618 20.2097 16.7131V20.9006C19.9578 20.9015 19.7122 20.9292 19.4752 20.9804V12.1061C19.4752 10.8174 19.8483 9.56784 20.5543 8.49265C20.8428 8.05318 20.7206 7.46291 20.281 7.17425C19.8418 6.88584 19.2514 7.00795 18.9626 7.44755C18.0523 8.834 17.5711 10.4447 17.5711 12.106V22.1026C17.0242 22.7245 16.6915 23.5391 16.6915 24.4303V24.9651C16.6915 26.9116 18.2752 28.4953 20.2217 28.4953H20.2967C20.6419 31.3981 22.0021 33.9939 24.012 35.916C21.4937 36.5712 19.2033 37.94 17.4175 39.8922C15.1239 42.3995 13.8607 45.6532 13.8607 49.0536V61.5343C13.8607 63.4454 15.4154 65.0001 17.3265 65.0001H20.3054C20.8313 65.0001 21.2574 64.5739 21.2574 64.048C21.2574 63.5221 20.8313 63.096 20.3054 63.096H17.3265C16.4654 63.096 15.7648 62.3954 15.7648 61.5343V49.0536C15.7648 46.1301 16.8507 43.3329 18.8224 41.1774C20.2117 39.6586 21.9559 38.5507 23.8782 37.9358C23.6231 38.7001 23.6396 39.5511 23.969 40.3238L27.4879 48.5776C27.601 48.8427 27.828 49.0423 28.1052 49.1205C28.6393 49.2708 28.9791 48.9221 29.0612 48.8763L29.6523 49.4673L26.776 63.0958H24.1122C23.5863 63.0958 23.1601 63.522 23.1601 64.0479C23.1601 64.5738 23.5863 64.9999 24.1122 64.9999H47.673C49.5841 64.9999 51.1388 63.4453 51.1388 61.5342V49.0535C51.1389 45.653 49.8757 42.3994 47.5821 39.8921ZM18.5957 24.9651V24.4303C18.5957 23.5377 19.3187 22.8107 20.2098 22.8042V26.5911C19.3188 26.5848 18.5957 25.8579 18.5957 24.9651ZM36.2239 46.7431L33.6641 44.9231L36.149 38.768C37.0136 38.4983 37.8449 38.1333 38.6281 37.6827L38.8611 37.8735C39.3603 38.2827 39.5322 38.9831 39.2791 39.5769L36.2239 46.7431ZM44.0556 31.2197C44.2558 30.6677 44.4152 30.1046 44.5335 29.5323H45.3317V31.2197H44.0556ZM45.4059 21.7674C46.7136 21.7674 47.7776 22.8314 47.7776 24.1392V25.2566C47.7776 26.5643 46.7136 27.6283 45.4059 27.6283H44.7901V27.0356V21.7675H45.4059V21.7674ZM38.2647 32.3369V31.9227C38.2647 31.7378 38.4152 31.5872 38.6003 31.5872H41.9114C42.0964 31.5872 42.2469 31.7378 42.2469 31.9227V32.3369C42.2469 32.5219 42.0964 32.6725 41.9114 32.6725H38.6003C38.4151 32.6723 38.2647 32.5219 38.2647 32.3369ZM33.9033 39.2439L32.4999 42.7199L31.0971 39.2451C31.5576 39.2976 32.0256 39.3255 32.4998 39.3255C32.9715 39.3257 33.4399 39.2976 33.9033 39.2439ZM25.7209 39.577C25.4678 38.9832 25.6397 38.2828 26.1389 37.8736L26.3696 37.6846C27.1479 38.1343 27.9797 38.5014 28.8532 38.7735L31.3359 44.9231L28.7761 46.7431L25.7209 39.577ZM32.4999 46.4317L34.3643 47.7572L32.4999 49.6217L30.6356 47.7572L32.4999 46.4317ZM28.7221 63.0958L31.2595 51.0742C31.6964 51.445 31.9065 51.9201 32.4999 51.9201C33.0933 51.9201 33.3036 51.4448 33.7405 51.074L36.2779 63.0958H28.7221ZM49.2348 61.5343C49.2348 62.3954 48.5342 63.096 47.6732 63.096H38.2238L35.3472 49.4673L35.9382 48.8763C36.007 48.9089 36.3522 49.2731 36.8944 49.1205C37.1717 49.0423 37.3987 48.8427 37.5117 48.5776L41.0306 40.3238C41.36 39.5511 41.3765 38.7 41.1214 37.9358C43.0436 38.5507 44.7879 39.6586 46.1772 41.1774C48.1489 43.3328 49.2348 46.1301 49.2348 49.0536V61.5343Z" fill="white"/>
</g>
<defs>
<clipPath id="clip0">
<rect width="65" height="65" fill="white"/>
</clipPath>
</defs>
</svg>
