<svg width="194" height="44" viewBox="0 0 194 44" fill="none" xmlns="http://www.w3.org/2000/svg">
<path d="M49.4616 11.0531H42.2182V15.5796C42.2182 15.7648 42.2623 15.9061 42.3504 16.0097C42.4412 16.1104 42.592 16.1889 42.8058 16.2421V16.5375H38.8857V16.2421C39.1087 16.1826 39.2626 16.101 39.3474 16.0034C39.4323 15.9061 39.4762 15.7648 39.4762 15.5796V4.9346C39.4762 4.7492 39.4323 4.6078 39.3474 4.5103C39.2626 4.4132 39.1087 4.3314 38.8857 4.2716V3.9765H42.8058V4.2716C42.5857 4.3251 42.4318 4.4038 42.3473 4.504C42.2623 4.6078 42.2182 4.7492 42.2182 4.9346V8.9833H49.4616V4.9346C49.4616 4.7492 49.4178 4.6078 49.3328 4.504C49.2481 4.4038 49.0942 4.3251 48.8712 4.2716V3.9765H52.791V4.2716C52.5712 4.3314 52.4172 4.4132 52.3325 4.5103C52.2475 4.6078 52.2037 4.7492 52.2037 4.9346V15.5796C52.2037 15.7648 52.2475 15.9061 52.3325 16.0034C52.4172 16.101 52.5712 16.1826 52.791 16.2421V16.5375H48.8712V16.2421C49.0879 16.1889 49.2387 16.1104 49.3266 16.0097C49.4178 15.9061 49.4616 15.7648 49.4616 15.5796V11.0531ZM60.6217 6.0088C62.258 6.0088 63.6243 6.4264 64.7175 7.262C66.0243 8.2672 66.6774 9.6679 66.6774 11.468C66.6774 13.1546 66.0243 14.4989 64.7175 15.5074C63.6369 16.3397 62.2768 16.7573 60.6406 16.7573C59.0007 16.7573 57.6407 16.3397 56.5634 15.5074C55.2506 14.4989 54.5941 13.1263 54.5941 11.383C54.5941 9.624 55.2506 8.2514 56.5634 7.262C57.647 6.4452 59.0007 6.0274 60.6217 6.0088ZM60.6311 7.9624C59.5694 7.9624 58.7056 8.3015 58.0365 8.9833C57.4177 9.6209 57.1069 10.4188 57.1069 11.383C57.1069 12.341 57.4177 13.1389 58.0365 13.7765C58.7056 14.4643 59.5725 14.8068 60.6406 14.8068C61.7021 14.8068 62.5659 14.4643 63.2348 13.7765C63.8538 13.1452 64.1646 12.363 64.1646 11.43C64.1646 10.4188 63.8538 9.602 63.2348 8.9833C62.5596 8.3141 61.6927 7.9718 60.6311 7.9624ZM79.069 7.1708V12.6269C79.069 13.8738 78.8238 14.7879 78.334 15.3689C77.5424 16.2956 76.0504 16.7573 73.861 16.7573C72.3943 16.7573 71.21 16.5343 70.3085 16.0853C69.6585 15.7616 69.2154 15.2966 68.9768 14.6967C68.7538 14.1438 68.6436 13.4531 68.6436 12.6269V7.1708C68.6436 6.9793 68.5998 6.8348 68.5151 6.7374C68.4301 6.6399 68.2764 6.5552 68.0563 6.4893V6.2317H71.7094V6.4893C71.4801 6.5489 71.323 6.6304 71.2383 6.7311C71.1536 6.8348 71.1095 6.9793 71.1095 7.1708V12.1306C71.1095 12.7053 71.1599 13.1483 71.2635 13.4562C71.3639 13.7608 71.5399 14.0121 71.7912 14.2101C72.2935 14.6088 73.0191 14.8068 73.9709 14.8068C74.9226 14.8068 75.6515 14.6088 76.1541 14.2101C76.399 14.0121 76.5719 13.7608 76.669 13.4562C76.7665 13.1483 76.8169 12.7053 76.8169 12.1306V7.1708C76.8169 6.9793 76.776 6.8348 76.691 6.7374C76.6094 6.6399 76.4555 6.5552 76.2262 6.4893V6.2317H79.6594V6.4893C79.4396 6.5489 79.2857 6.6304 79.2007 6.7311C79.1128 6.8348 79.069 6.9793 79.069 7.1708ZM91.1778 7.1613L89.9369 9.5613L89.7171 9.4418C89.7171 9.2408 89.6512 9.0806 89.5224 8.9646C89.1736 8.6504 88.6584 8.3928 87.977 8.1919C87.2952 7.9876 86.6075 7.8871 85.9069 7.8871C85.3102 7.8871 84.7824 7.9687 84.3239 8.1352C83.6611 8.3737 83.3282 8.7194 83.3282 9.175C83.3282 9.4764 83.4885 9.6899 83.8088 9.8155C84.1261 9.9414 84.7447 10.0416 85.6588 10.1143L87.1098 10.2239C88.3822 10.3215 89.3464 10.5696 90.009 10.962C90.3765 11.1819 90.6813 11.4774 90.92 11.8449C91.2216 12.3066 91.3724 12.8249 91.3724 13.3996C91.3724 14.4485 90.9011 15.2779 89.9558 15.8841C89.0542 16.4653 87.8324 16.7573 86.2933 16.7573C84.7415 16.7573 83.2401 16.4305 81.7922 15.7742C81.6949 15.7304 81.6101 15.7083 81.5438 15.7083C81.4216 15.7083 81.3085 15.7836 81.2049 15.9313L80.9725 15.8369L82.0309 13.3178L82.2633 13.409C82.2633 13.4437 82.2633 13.4686 82.2633 13.4812C82.2633 13.6414 82.3231 13.7765 82.4456 13.8864C82.7535 14.1566 83.2844 14.3921 84.038 14.5902C84.7919 14.7911 85.5363 14.8916 86.2744 14.8916C86.9246 14.8916 87.5056 14.8068 88.0239 14.634C88.6616 14.4236 88.9789 14.0874 88.9789 13.6194C88.9789 13.2456 88.7591 12.9849 88.3161 12.8375C88.0239 12.7399 87.493 12.6552 86.7234 12.5891L85.2787 12.47C84.4999 12.41 83.9061 12.3284 83.4948 12.2313C83.083 12.1337 82.7252 11.9892 82.4173 11.7975C82.0246 11.5527 81.7198 11.2196 81.4969 10.7957C81.277 10.3716 81.1671 9.9097 81.1671 9.4042C81.1671 8.2766 81.6508 7.4129 82.6213 6.819C83.5042 6.2789 84.597 6.0088 85.8975 6.0088C86.6043 6.0088 87.2606 6.0874 87.87 6.2441C88.4827 6.4012 89.2113 6.6747 90.0562 7.0674C90.3075 7.1834 90.4835 7.2432 90.5808 7.2432C90.6781 7.2432 90.804 7.1771 90.9577 7.0422L91.1778 7.1613ZM95.9268 12.1558V14.6686H102.47C102.661 14.6686 102.806 14.6245 102.906 14.5398C103.007 14.4548 103.088 14.2977 103.151 14.0716H103.409V17.1279H103.151C103.095 16.9113 103.013 16.7604 102.909 16.6694C102.806 16.5813 102.661 16.5375 102.47 16.5375H92.8704V16.2799C93.0871 16.2264 93.2379 16.1448 93.326 16.0412C93.4171 15.9376 93.4609 15.7899 93.4609 15.5982V7.1708C93.4609 6.9793 93.4171 6.8348 93.3323 6.7374C93.2474 6.6399 93.0934 6.5552 92.8704 6.4893V6.2317H102.184C102.382 6.2317 102.529 6.1877 102.63 6.1029C102.73 6.018 102.812 5.864 102.875 5.641H103.123V8.6974H102.875C102.812 8.4712 102.73 8.3141 102.63 8.2263C102.529 8.1413 102.382 8.0975 102.184 8.0975H95.9268V10.3622H99.8091C100 10.3622 100.145 10.3183 100.246 10.2334C100.349 10.1486 100.434 9.9947 100.5 9.7749H100.748V12.7556H100.5C100.441 12.5327 100.359 12.3787 100.255 12.2908C100.154 12.1996 100.007 12.1558 99.8091 12.1558H95.9268ZM115.765 11.0531H108.522V15.5796C108.522 15.7648 108.566 15.9061 108.654 16.0097C108.745 16.1104 108.896 16.1889 109.11 16.2421V16.5375H105.19V16.2421C105.413 16.1826 105.566 16.101 105.651 16.0034C105.736 15.9061 105.78 15.7648 105.78 15.5796V4.9346C105.78 4.7492 105.736 4.6078 105.651 4.5103C105.566 4.4132 105.413 4.3314 105.19 4.2716V3.9765H109.11V4.2716C108.89 4.3251 108.736 4.4038 108.651 4.504C108.566 4.6078 108.522 4.7492 108.522 4.9346V8.9833H115.765V4.9346C115.765 4.7492 115.722 4.6078 115.637 4.504C115.552 4.4038 115.398 4.3251 115.175 4.2716V3.9765H119.095V4.2716C118.875 4.3314 118.721 4.4132 118.636 4.5103C118.552 4.6078 118.508 4.7492 118.508 4.9346V15.5796C118.508 15.7648 118.552 15.9061 118.636 16.0034C118.721 16.101 118.875 16.1826 119.095 16.2421V16.5375H115.175V16.2421C115.392 16.1889 115.543 16.1104 115.631 16.0097C115.722 15.9061 115.765 15.7648 115.765 15.5796V11.0531ZM131.939 7.1708V12.6269C131.939 13.8738 131.694 14.7879 131.204 15.3689C130.412 16.2956 128.92 16.7573 126.731 16.7573C125.264 16.7573 124.08 16.5343 123.178 16.0853C122.528 15.7616 122.085 15.2966 121.847 14.6967C121.624 14.1438 121.514 13.4531 121.514 12.6269V7.1708C121.514 6.9793 121.47 6.8348 121.385 6.7374C121.3 6.6399 121.146 6.5552 120.926 6.4893V6.2317H124.579V6.4893C124.35 6.5489 124.193 6.6304 124.108 6.7311C124.023 6.8348 123.979 6.9793 123.979 7.1708V12.1306C123.979 12.7053 124.03 13.1483 124.133 13.4562C124.234 13.7608 124.41 14.0121 124.661 14.2101C125.163 14.6088 125.889 14.8068 126.841 14.8068C127.792 14.8068 128.521 14.6088 129.024 14.2101C129.269 14.0121 129.442 13.7608 129.539 13.4562C129.636 13.1483 129.687 12.7053 129.687 12.1306V7.1708C129.687 6.9793 129.646 6.8348 129.561 6.7374C129.479 6.6399 129.325 6.5552 129.096 6.4893V6.2317H132.529V6.4893C132.309 6.5489 132.155 6.6304 132.071 6.7311C131.982 6.8348 131.939 6.9793 131.939 7.1708ZM136.971 9.7465V15.5982C136.971 15.7899 137.015 15.9376 137.106 16.0412C137.194 16.1448 137.344 16.2296 137.561 16.2893V16.5375H134.137V16.2799C134.354 16.2264 134.505 16.1448 134.593 16.0412C134.684 15.9376 134.728 15.7899 134.728 15.5982V7.1708C134.728 6.9793 134.684 6.8348 134.599 6.7374C134.514 6.6399 134.361 6.5552 134.137 6.4893V6.2317H138.095V6.4893C137.825 6.5552 137.69 6.6747 137.69 6.8476C137.69 6.995 137.787 7.1645 137.985 7.3625L143.507 12.8469V7.1708C143.507 6.9793 143.463 6.8348 143.379 6.7311C143.294 6.6304 143.14 6.5489 142.917 6.4893V6.2317H146.34V6.4893C146.117 6.5489 145.964 6.6304 145.879 6.7311C145.794 6.8348 145.75 6.9793 145.75 7.1708V15.5982C145.75 15.7899 145.794 15.9345 145.879 16.0349C145.964 16.1385 146.117 16.2233 146.34 16.2893V16.5375H142.65V16.2893C142.92 16.2358 143.055 16.1196 143.055 15.947C143.055 15.8621 143.017 15.7742 142.945 15.6829C142.873 15.5919 142.703 15.4099 142.439 15.1397L136.971 9.7465ZM153.838 8.0975V15.5982C153.838 15.7899 153.882 15.9345 153.967 16.0349C154.052 16.1385 154.206 16.2233 154.426 16.2893V16.5375H150.782V16.2799C150.999 16.2264 151.149 16.1448 151.237 16.0412C151.328 15.9376 151.372 15.7899 151.372 15.5982V8.0975H148.335C148.137 8.0975 147.99 8.1413 147.889 8.2326C147.785 8.3204 147.704 8.4744 147.644 8.6974H147.396V5.641H147.654C147.707 5.8579 147.785 6.0088 147.889 6.0966C147.99 6.1877 148.137 6.2317 148.335 6.2317H156.872C157.07 6.2317 157.218 6.1877 157.321 6.1029C157.422 6.018 157.504 5.864 157.563 5.641H157.812V8.6974H157.563C157.504 8.4744 157.422 8.3204 157.321 8.2326C157.218 8.1413 157.07 8.0975 156.872 8.0975H153.838ZM162.046 12.1558V14.6686H168.589C168.78 14.6686 168.924 14.6245 169.025 14.5398C169.125 14.4548 169.207 14.2977 169.27 14.0716H169.527V17.1279H169.27C169.214 16.9113 169.132 16.7604 169.028 16.6694C168.924 16.5813 168.78 16.5375 168.589 16.5375H158.989V16.2799C159.206 16.2264 159.357 16.1448 159.445 16.0412C159.536 15.9376 159.58 15.7899 159.58 15.5982V7.1708C159.58 6.9793 159.536 6.8348 159.451 6.7374C159.366 6.6399 159.212 6.5552 158.989 6.4893V6.2317H168.303C168.5 6.2317 168.648 6.1877 168.748 6.1029C168.849 6.018 168.931 5.864 168.993 5.641H169.242V8.6974H168.993C168.931 8.4712 168.849 8.3141 168.748 8.2263C168.648 8.1413 168.5 8.0975 168.303 8.0975H162.046V10.3622H165.928C166.119 10.3622 166.264 10.3183 166.365 10.2334C166.468 10.1486 166.553 9.9947 166.619 9.7749H166.867V12.7556H166.619C166.559 12.5327 166.478 12.3787 166.374 12.2908C166.273 12.1996 166.126 12.1558 165.928 12.1558H162.046ZM174.135 12.3034V15.5982C174.135 15.7899 174.179 15.9345 174.264 16.0349C174.349 16.1385 174.503 16.2233 174.723 16.2893V16.5375H171.079V16.2799C171.296 16.2264 171.447 16.1448 171.535 16.0412C171.626 15.9376 171.67 15.7899 171.67 15.5982V7.1708C171.67 6.9793 171.626 6.8348 171.541 6.7374C171.456 6.6399 171.302 6.5552 171.079 6.4893V6.2317H177.836C178.712 6.2317 179.378 6.2758 179.84 6.3637C180.301 6.4549 180.713 6.6149 181.074 6.8476C181.815 7.331 182.186 8.1226 182.186 9.2219C182.186 10.0542 181.957 10.7079 181.501 11.1758C181.046 11.6467 180.308 11.9861 179.287 12.1933L181.237 14.9165C181.592 15.4224 181.878 15.7648 182.089 15.9439C182.302 16.1228 182.544 16.239 182.811 16.2893V16.5375H178.489V16.2893C178.806 16.2044 178.966 16.0661 178.966 15.8747C178.966 15.7396 178.869 15.5355 178.671 15.259L176.61 12.3034H174.135ZM174.135 10.4375H177.851C178.417 10.4375 178.834 10.3748 179.105 10.2523C179.485 10.0857 179.673 9.7591 179.673 9.2692C179.673 8.8324 179.541 8.5308 179.274 8.3582C179.007 8.1856 178.533 8.0975 177.851 8.0975H174.135V10.4375ZM193.742 7.1613L192.501 9.5613L192.281 9.4418C192.281 9.2408 192.215 9.0806 192.087 8.9646C191.738 8.6504 191.223 8.3928 190.541 8.1919C189.859 7.9876 189.171 7.8871 188.471 7.8871C187.874 7.8871 187.347 7.9687 186.888 8.1352C186.225 8.3737 185.892 8.7194 185.892 9.175C185.892 9.4764 186.052 9.6899 186.373 9.8155C186.69 9.9414 187.309 10.0416 188.223 10.1143L189.674 10.2239C190.946 10.3215 191.911 10.5696 192.573 10.962C192.941 11.1819 193.245 11.4774 193.484 11.8449C193.786 12.3066 193.936 12.8249 193.936 13.3996C193.936 14.4485 193.465 15.2779 192.52 15.8841C191.618 16.4653 190.397 16.7573 188.857 16.7573C187.306 16.7573 185.804 16.4305 184.356 15.7742C184.259 15.7304 184.174 15.7083 184.108 15.7083C183.986 15.7083 183.873 15.7836 183.769 15.9313L183.536 15.8369L184.595 13.3178L184.827 13.409C184.827 13.4437 184.827 13.4686 184.827 13.4812C184.827 13.6414 184.887 13.7765 185.01 13.8864C185.317 14.1566 185.848 14.3921 186.602 14.5902C187.356 14.7911 188.1 14.8916 188.839 14.8916C189.489 14.8916 190.07 14.8068 190.588 14.634C191.226 14.4236 191.543 14.0874 191.543 13.6194C191.543 13.2456 191.323 12.9849 190.88 12.8375C190.588 12.7399 190.057 12.6552 189.288 12.5891L187.843 12.47C187.064 12.41 186.47 12.3284 186.059 12.2313C185.647 12.1337 185.289 11.9892 184.981 11.7975C184.589 11.5527 184.284 11.2196 184.061 10.7957C183.841 10.3716 183.731 9.9097 183.731 9.4042C183.731 8.2766 184.215 7.4129 185.186 6.819C186.068 6.2789 187.161 6.0088 188.462 6.0088C189.168 6.0088 189.825 6.0874 190.434 6.2441C191.047 6.4012 191.776 6.6747 192.62 7.0674C192.872 7.1834 193.048 7.2432 193.145 7.2432C193.242 7.2432 193.368 7.1771 193.522 7.0422L193.742 7.1613ZM22.0979 27.6508C22.0998 26.5958 22.096 25.527 22.0911 24.4602C22.089 23.992 22.0902 23.463 21.8033 23.0566C21.2233 22.2352 19.4735 22.8861 18.6063 21.5489C18.4882 21.3666 18.2079 20.6999 18.342 20.5474C18.4015 20.4793 18.4589 20.4094 18.5139 20.3375C20.1777 18.1582 19.5892 14.4062 16.706 14.4621C13.7644 14.5822 13.524 18.5453 15.4972 20.5585C15.6578 20.8822 15.3331 21.3954 15.1005 21.6404C14.6696 22.0943 14.1709 22.3611 13.5703 22.5513C13.2831 22.6421 12.6017 22.8317 12.4003 23.0115C11.8999 23.4584 12.0037 23.9804 12.0434 24.5635C12.0594 24.8017 13.8523 26.1003 14.0978 26.2458C17.3456 27.8629 18.631 27.6508 22.0979 27.6508ZM21.5043 21.9812L21.5138 22.2282C22.2824 22.3497 22.6779 22.8082 22.6801 23.5526L22.6915 27.6508C24.2268 27.3695 27.01 25.9962 27.5475 24.6158C27.5622 24.5776 27.5605 24.5304 27.5656 24.4686C27.5758 24.3493 27.5719 24.2072 27.5702 24.1237C27.5671 23.9378 27.5637 23.8445 27.5145 23.6635C27.2008 22.5068 25.6989 22.9459 24.8562 22.2308C24.6839 22.0171 24.2316 21.2591 24.4127 21.0528C24.4657 20.9926 24.5166 20.9306 24.5655 20.8667C26.0407 18.9344 25.519 15.6069 22.9622 15.6565C20.3535 15.7631 20.1402 19.2776 21.8902 21.0628C22.0456 21.3763 21.7479 21.7982 21.5043 21.9812ZM10.2261 18.463L19.4384 11.7123L28.7003 18.5119V27.9532H10.2261V18.463ZM8.9314 29.176H29.8456V17.8271L19.4384 10.1959L9.0213 17.768L8.9314 29.176ZM15.5403 10.4307V8.8058H12.8723V12.2654L8.1231 15.7778V17.56C8.2817 17.5184 8.6882 17.1831 8.8474 17.0657L19.4357 9.3822L30.5883 17.4552V15.6728L19.4357 7.6L15.5403 10.4307ZM1.1816 17.8472L1.1957 17.8469H2.7331C3.4809 9.7674 9.9506 3.3475 18.0524 2.6767V1.3155C18.005 0.6035 18.5487 0 19.2607 0C19.9267 0 20.4672 0.5277 20.475 1.1816V1.1957V2.6494C28.831 3.149 35.5404 9.7565 36.1995 18.0684H37.5133C38.2253 18.021 38.8291 18.5649 38.8291 19.2767C38.8291 19.9426 38.3013 20.4832 37.6475 20.491L37.6332 20.4912H36.2182C35.9635 24.5158 34.2914 28.1553 31.6956 30.9163C31.6794 30.9354 31.6619 30.9536 31.643 30.9715L31.6244 30.9909L39.9347 38.9591C40.7723 39.8412 40.7408 41.3216 39.7427 42.3073C39.3561 42.6893 38.7441 43.0067 38.0193 43.0067C36.7602 43.0067 35.9555 41.9057 35.3644 41.01L29.6848 32.8309C29.6589 32.8438 29.6081 32.8464 29.5418 32.8455C27.0718 34.7032 24.0731 35.8957 20.8112 36.156V37.7455C20.8584 38.4575 20.3147 39.061 19.603 39.061C18.937 39.061 18.3964 38.5335 18.3887 37.8796L18.3885 37.8653V36.1761C9.8923 35.6425 3.1096 28.794 2.682 20.2697H1.3155C0.6035 20.3169 0 19.7732 0 19.0615C0 18.3955 0.5277 17.8549 1.1816 17.8472ZM5.1201 17.8469H7.287V20.2697H5.0608C5.4827 27.4823 11.2044 33.2708 18.3885 33.7969V31.7743H20.8112V33.7731C27.7876 33.1234 33.3214 27.5049 33.839 20.4912H31.5421V18.0684H33.8165C33.1684 11.0688 27.5189 5.5198 20.475 5.0283V7.287H18.0524V5.0603C11.263 5.7166 5.8514 11.0799 5.1201 17.8469ZM35.7587 18.0563H192.706C193.372 18.0563 193.917 18.6015 193.917 19.2675V19.3282C193.917 19.9947 193.372 20.5399 192.706 20.5399H35.7587C35.0923 20.5399 34.5473 19.9947 34.5473 19.3282V19.2675C34.5473 18.6015 35.0923 18.0563 35.7587 18.0563ZM39.5088 21.9367V26.9919H40.6992C41.2054 26.9851 41.643 26.9987 42.088 26.7183C42.4778 26.4719 42.7104 26.0204 42.7104 25.5624C42.7104 24.9809 42.4092 24.5086 41.8757 24.2897C42.2245 24.0435 42.4366 23.7153 42.4366 23.2773C42.4366 22.8397 42.204 22.4291 41.8416 22.1897C41.4925 21.964 41.0957 21.9367 40.6921 21.9367H39.5088ZM40.6377 26.5336H40.015V24.5568H40.5488C40.8836 24.5568 41.2531 24.55 41.568 24.6592C41.9578 24.7962 42.204 25.1382 42.1972 25.5692C42.204 25.8904 41.9919 26.2325 41.7048 26.383C41.3968 26.5404 40.9797 26.5404 40.6377 26.5336ZM40.5624 24.0983H40.015V22.3949H40.6033C40.9042 22.3812 41.2668 22.3882 41.5268 22.5455C41.7595 22.6891 41.9304 22.9694 41.9304 23.2432C41.9304 23.5235 41.7663 23.8179 41.5201 23.9477C41.2327 24.105 40.8836 24.0983 40.5624 24.0983ZM48.7981 26.9919V27.5801H49.3045V26.5336H48.9625V21.9367H48.4563V26.5336H45.8362V21.9367H45.33V26.9919H48.7981ZM50.0025 21.9367V26.9919H52.7661V26.5336H50.5084V24.673H52.6908V24.2147H50.5084V22.3949H52.7661V21.9367H50.0025ZM53.6691 21.9367V26.9919H54.175V24.6182H56.7951V26.9919H57.3015V21.9367H56.7951V24.1597H54.175V21.9367H53.6691ZM59.0254 22.3949V26.9919H59.5316V22.3949H60.6876V21.9367H57.8695V22.3949H59.0254ZM61.2555 21.9367V26.9919H61.7617V24.9535H62.7126C63.1844 24.9535 63.6359 24.9124 64.0261 24.625C64.4091 24.3445 64.6004 23.9203 64.6004 23.4553C64.6004 22.9491 64.3747 22.484 63.937 22.2102C63.5267 21.9502 63.0544 21.9435 62.5826 21.9367H61.2555ZM62.6303 24.495H61.7617V22.3949H62.4114C62.7605 22.3949 63.1299 22.3608 63.4652 22.5044C63.8618 22.6687 64.0944 23.0108 64.0944 23.4485C64.0944 23.7768 63.937 24.1121 63.6499 24.2897C63.342 24.4815 62.9861 24.495 62.6303 24.495ZM65.3051 21.9367V26.9919H68.0689V26.5336H65.8113V24.673H67.9934V24.2147H65.8113V22.3949H68.0689V21.9367H65.3051ZM75.0325 23.2364H75.5934C75.4566 22.867 75.0393 22.484 74.7178 22.2787C74.2869 21.9914 73.7736 21.8546 73.2607 21.8546C71.8241 21.8546 70.6476 23.0108 70.6476 24.4471C70.6476 25.9386 71.8174 27.081 73.3018 27.081C74.2527 27.081 75.176 26.513 75.614 25.6716H75.0531C74.6563 26.2257 73.9857 26.5951 73.3018 26.5951C72.1527 26.5951 71.1538 25.6306 71.1538 24.4471C71.1538 23.3388 72.1183 22.3402 73.2677 22.3402C73.9448 22.3402 74.6563 22.6617 75.0325 23.2364ZM81.5516 24.4541C81.5516 23.0038 80.3065 21.8614 78.8768 21.8614C77.4129 21.8614 76.209 23.0244 76.209 24.4882C76.209 25.9386 77.4606 27.081 78.8768 27.081C80.3407 27.081 81.5516 25.918 81.5516 24.4541ZM76.715 24.4882C76.715 23.3047 77.6932 22.347 78.8838 22.347C80.033 22.347 81.0454 23.2844 81.0454 24.4541C81.0454 25.6442 80.0739 26.5951 78.8838 26.5951C77.7344 26.5951 76.715 25.658 76.715 24.4882ZM85.2046 21.9367H82.3725V26.9919H83.6996C84.1714 26.9851 84.6437 26.9783 85.054 26.7183C85.4917 26.4445 85.7173 25.9795 85.7173 25.4733C85.7173 25.0082 85.5259 24.5841 85.1429 24.3035C84.7529 24.0162 84.3014 23.9753 83.8293 23.9753H82.8784V22.3949H85.2046V21.9367ZM83.7473 24.4335C84.1031 24.4335 84.459 24.4471 84.7667 24.6388C85.054 24.8165 85.2114 25.1518 85.2114 25.4801C85.2114 25.918 84.9785 26.2598 84.582 26.4242C84.2469 26.5678 83.8775 26.5336 83.5284 26.5336H82.8784V24.4335H83.7473ZM86.4221 26.9919H87.7492C88.221 26.9851 88.6933 26.9783 89.1036 26.7183C89.5413 26.4445 89.7669 25.9795 89.7669 25.4733C89.7669 25.0082 89.5754 24.5841 89.1925 24.3035C88.8025 24.0162 88.351 23.9753 87.8789 23.9753H86.928V21.9367H86.4221V26.9919ZM90.2666 21.9367V26.9919H90.7725V21.9367H90.2666ZM87.7968 24.4335C88.1527 24.4335 88.5086 24.4471 88.8163 24.6388C89.1036 24.8165 89.261 25.1518 89.261 25.4801C89.261 25.918 89.0281 26.2598 88.6316 26.4242C88.2965 26.5678 87.9271 26.5336 87.578 26.5336H86.928V24.4335H87.7968ZM92.4964 22.3949V26.9919H93.0029V22.3949H94.1588V21.9367H91.3405V22.3949H92.4964ZM98.6122 21.9367H97.9215L95.2329 26.1301V21.9367H94.7267V26.9919H95.24L98.1062 22.5455V26.9919H98.6122V21.9367ZM103.538 21.9367H102.847L100.158 26.1301V21.9367H99.6522V26.9919H100.165L103.031 22.5455V26.9919H103.538V21.9367ZM100.986 20.849H100.555C100.678 21.3346 101.123 21.5537 101.595 21.5537C102.067 21.5537 102.511 21.3346 102.635 20.849H102.204C102.101 21.0678 101.827 21.1637 101.595 21.1637C101.362 21.1637 101.089 21.0678 100.986 20.849Z" fill="#267F00"/>
</svg>
