<svg width="30" height="30" viewBox="0 0 30 30" fill="none" xmlns="http://www.w3.org/2000/svg">
<g clip-path="url(#clip0)">
<path d="M15.0001 30.0002C23.2844 30.0002 30.0002 23.2844 30.0002 15.0001C30.0002 6.71577 23.2844 0 15.0001 0C6.71577 0 0 6.71577 0 15.0001C0 23.2844 6.71577 30.0002 15.0001 30.0002Z" fill="#E27E35"/>
<path d="M16.9301 19.1409C17.8904 18.9212 18.817 18.5418 19.6679 18.0064C20.3125 17.5988 20.5081 16.7465 20.1009 16.1008C19.6932 15.4535 18.8423 15.2585 18.1966 15.6653C16.2643 16.8799 13.7794 16.8785 11.8471 15.6653C11.1998 15.2586 10.3502 15.4537 9.9428 16.1008C9.53535 16.7453 9.731 17.5988 10.3755 18.0064C11.2265 18.5418 12.1519 18.9212 13.1122 19.1409L10.4809 21.775C9.94027 22.3156 9.94027 23.1879 10.4809 23.7272C10.7513 23.9962 11.104 24.1319 11.4556 24.1319C11.8097 24.1319 12.1613 23.9962 12.433 23.7272L15.0231 21.1383L17.6132 23.7272C18.1538 24.2678 19.0249 24.2678 19.5655 23.7272C20.1061 23.1877 20.1061 22.3129 19.5655 21.775L16.9301 19.1409ZM15.0231 8.62994C16.1004 8.62994 16.9753 9.50557 16.9753 10.5829C16.9753 11.6576 16.1004 12.5333 15.0231 12.5333C13.9483 12.5333 13.0696 11.6576 13.0696 10.5829C13.0696 9.50557 13.9483 8.62994 15.0231 8.62994ZM15.0231 15.2945C17.6227 15.2945 19.7359 13.1798 19.7359 10.5829C19.7359 7.98072 17.6227 5.86621 15.0231 5.86621C12.4223 5.86621 10.309 7.98091 10.309 10.5803C10.309 13.1798 12.4223 15.2945 15.0231 15.2945Z" fill="white"/>
</g>
<defs>
<clipPath id="clip0">
<rect width="30" height="30" fill="white"/>
</clipPath>
</defs>
</svg>
