<svg width="30" height="30" viewBox="0 0 30 30" fill="none" xmlns="http://www.w3.org/2000/svg">
<g clip-path="url(#clip0)">
<path d="M15 30.0001C23.2843 30.0001 30.0001 23.2843 30.0001 15C30.0001 6.71574 23.2843 0 15 0C6.71574 0 0 6.71574 0 15C0 23.2843 6.71574 30.0001 15 30.0001Z" fill="#D42428"/>
<path d="M25.6062 4.3916C31.4641 10.25 31.4646 19.7478 25.6062 25.6062C19.7483 31.4641 10.25 31.4643 4.3916 25.6062L25.6062 4.3916Z" fill="#CC202D"/>
<path d="M29.6983 18.0038L22.2743 10.5801L13.5184 11.577L8.22217 19.7764L18.1187 29.6727C23.9372 28.4418 28.5116 23.8392 29.6983 18.0038Z" fill="#BA202E"/>
<path d="M22.8497 12.1058C22.8497 10.8483 21.831 9.8291 20.5743 9.8291H9.89855C8.64204 9.8291 7.62354 10.8486 7.62354 12.1058V18.2107C7.62354 19.4682 8.64223 20.4874 9.89855 20.4874H20.5741C21.8311 20.4874 22.8495 19.4679 22.8495 18.2107V12.1058H22.8497ZM13.7135 17.7337V11.9997L18.062 14.8668L13.7135 17.7337Z" fill="white"/>
</g>
<defs>
<clipPath id="clip0">
<rect width="30" height="30" fill="white"/>
</clipPath>
</defs>
</svg>
