<?xml version="1.0" encoding="utf-8"?><svg xmlns="http://www.w3.org/2000/svg" xmlns:xlink="http://www.w3.org/1999/xlink"><symbol viewBox="0 0 22 24" id="basket" xmlns="http://www.w3.org/2000/svg"><g clip-path="url(#aclip0)"><path d="M10.363 18.443a2.046 2.046 0 00-2.045 2.042 2.046 2.046 0 004.09 0 2.046 2.046 0 00-2.045-2.042zm6.134 0a2.046 2.046 0 00-2.045 2.042 2.046 2.046 0 004.089 0 2.046 2.046 0 00-2.044-2.042zm3.978-8.199L7.413 6.891a.614.614 0 00-.75.73L8.67 16.4h-.786L5.482 5.895a.613.613 0 00-.474-.464l-4.27-.882A.614.614 0 00.489 5.75l3.885.802L6.797 17.15a.613.613 0 00.598.477h12.07a.615.615 0 00.607-.53l.858-6.175a.613.613 0 00-.455-.678zm-8.14 3.91a.613.613 0 01-1.227 0v-2.696a.613.613 0 011.227 0v2.696zm2.625 0a.613.613 0 01-1.227 0v-1.88a.613.613 0 011.227 0v1.88zm2.625 0a.613.613 0 01-1.227 0v-1.226a.613.613 0 011.227 0v1.226z"/></g><path fill-rule="evenodd" clip-rule="evenodd" d="M16.268 4.568a2.996 2.996 0 00-1.693-.523c-.627 0-1.21.193-1.693.523-.28-.843-.492-1.752-.492-2.383C12.39.98 13.37 0 14.575 0s2.185.98 2.185 2.185c0 .631-.212 1.54-.492 2.383zm-4.722 2.274l.024.006v-.011l-.024.005zm4.972 1.217c-1.333-.33-2.766-.681-4.129-1.013a2.185 2.185 0 114.129 1.013zm4.436 1.103c-.866-.217-2.155-.538-3.618-.9a2.995 2.995 0 00.243-1.425c.87.18 1.762.45 2.308.765.596.344.969.928 1.067 1.56zM9.869 6.439c-.36-.086-.706-.167-1.03-.243a2.19 2.19 0 01-.376-2.667 2.188 2.188 0 013.147-.7c.098.738.338 1.599.61 2.353a3.01 3.01 0 00-.449.774c-.628.113-1.305.278-1.902.483zm10.124.075a3.43 3.43 0 01-.217.114c-.696-.295-1.587-.526-2.397-.672a3.01 3.01 0 00-.449-.774c.262-.727.494-1.553.599-2.273.095-.067.189-.128.278-.18a2.188 2.188 0 012.986.8 2.188 2.188 0 01-.8 2.985z"/><defs><clipPath id="aclip0"><path transform="translate(0 3.064)" d="M0 0h20.936v20.936H0z"/></clipPath></defs></symbol><symbol viewBox="0 0 344.96 344.96" id="check" xmlns="http://www.w3.org/2000/svg"><g data-name="Слой 2"><path d="M321.85 86.24l-40-23.11-23.1-40H212.5L172.48 0l-40 23.11H86.24l-23.11 40-40 23.1v46.21L0 172.48l23.11 40v46.21l40 23.11 23.11 40h46.21l40 23.1 40-23.11h46.21l23.11-40 40-23.11V212.5l23.11-40-23.11-40V86.24zM156.91 243.07a16.79 16.79 0 01-23.34 0l-50.45-50.44a16.19 16.19 0 010-22.89l13.35-13.35a16.19 16.19 0 0122.89 0l25.87 25.87 80.34-80.35a16.19 16.19 0 0122.89 0l13.35 13.35a16.19 16.19 0 010 22.89z" data-name="Capa 1"/></g></symbol><symbol viewBox="0 0 10 10" id="chevron-down" xmlns="http://www.w3.org/2000/svg"><g clip-path="url(#cclip0)"><path d="M5.274 7.586l4.613-4.625a.388.388 0 00-.55-.547L5 6.764.662 2.414a.388.388 0 10-.549.547l4.613 4.625a.387.387 0 00.548 0z"/></g><defs><clipPath id="cclip0"><path transform="rotate(90 5 5)" d="M0 0h10v10H0z"/></clipPath></defs></symbol><symbol viewBox="0 0 24 24" id="fb" xmlns="http://www.w3.org/2000/svg"><path d="M13.397 20.997v-8.196h2.765l.411-3.209h-3.176V7.548c0-.926.258-1.56 1.587-1.56h1.684v-2.86A22.108 22.108 0 0014.201 3c-2.444 0-4.122 1.492-4.122 4.231v2.355H7.332v3.21h2.753v8.201h3.312z"/></symbol><symbol viewBox="0 0 20 20" id="heart" xmlns="http://www.w3.org/2000/svg"><path d="M10 18.887c-.285 0-.56-.103-.773-.29a232.44 232.44 0 00-2.274-1.956l-.004-.003c-2.015-1.717-3.755-3.2-4.965-4.66C.63 10.343 0 8.795 0 7.103c0-1.643.564-3.16 1.587-4.269a5.378 5.378 0 014-1.741A5.03 5.03 0 018.73 2.179c.47.363.895.807 1.27 1.326a6.43 6.43 0 011.27-1.326 5.03 5.03 0 013.143-1.085c1.544 0 2.965.618 4 1.741C19.438 3.945 20 5.461 20 7.105c0 1.69-.63 3.24-1.983 4.872-1.211 1.46-2.951 2.944-4.966 4.66-.688.587-1.468 1.252-2.278 1.96-.214.187-.488.29-.773.29zM5.587 2.265a4.22 4.22 0 00-3.14 1.364c-.822.893-1.276 2.127-1.276 3.475 0 1.423.53 2.695 1.715 4.125 1.145 1.383 2.85 2.836 4.823 4.517l.004.003c.69.588 1.471 1.255 2.285 1.966.82-.713 1.602-1.38 2.293-1.97 1.974-1.68 3.678-3.133 4.823-4.515 1.186-1.43 1.714-2.703 1.714-4.126 0-1.348-.453-2.582-1.276-3.475a4.22 4.22 0 00-3.139-1.364c-.889 0-1.705.283-2.426.84-.642.497-1.09 1.125-1.352 1.564A.734.734 0 0110 5.03a.734.734 0 01-.635-.36c-.262-.44-.71-1.068-1.352-1.565a3.885 3.885 0 00-2.426-.84z"/></symbol><symbol viewBox="0 0 24 24" id="instagram" xmlns="http://www.w3.org/2000/svg"><path d="M11.999 7.377a4.624 4.624 0 100 9.248 4.624 4.624 0 000-9.248zm0 7.627a3.004 3.004 0 110-6.008 3.004 3.004 0 010 6.008zm4.807-6.719a1.078 1.078 0 100-2.156 1.078 1.078 0 000 2.156z"/><path d="M20.533 6.11A4.605 4.605 0 0017.9 3.48a6.607 6.607 0 00-2.186-.42c-.963-.042-1.268-.054-3.71-.054s-2.755 0-3.71.054a6.554 6.554 0 00-2.184.42 4.6 4.6 0 00-2.633 2.63 6.585 6.585 0 00-.419 2.186c-.043.962-.056 1.267-.056 3.71 0 2.442 0 2.753.056 3.71.015.748.156 1.486.419 2.187a4.61 4.61 0 002.634 2.632 6.583 6.583 0 002.185.45c.963.042 1.268.055 3.71.055s2.755 0 3.71-.055a6.616 6.616 0 002.186-.42 4.613 4.613 0 002.633-2.632c.263-.7.404-1.438.419-2.186.043-.962.056-1.267.056-3.71s0-2.753-.056-3.71a6.583 6.583 0 00-.421-2.217zm-1.218 9.533a5.046 5.046 0 01-.311 1.688 2.987 2.987 0 01-1.712 1.71c-.535.2-1.1.305-1.67.312-.95.044-1.218.055-3.654.055-2.438 0-2.687 0-3.655-.055a4.961 4.961 0 01-1.67-.311 2.984 2.984 0 01-1.718-1.711 5.08 5.08 0 01-.311-1.67c-.043-.95-.053-1.217-.053-3.653 0-2.437 0-2.686.053-3.655a5.038 5.038 0 01.311-1.687c.305-.79.93-1.41 1.719-1.712a5.01 5.01 0 011.669-.311c.95-.043 1.218-.055 3.655-.055s2.687 0 3.654.055a4.96 4.96 0 011.67.31 2.99 2.99 0 011.712 1.713 5.06 5.06 0 01.311 1.669c.043.95.054 1.218.054 3.655 0 2.436 0 2.698-.043 3.654h-.011v-.001z"/></symbol><symbol viewBox="0 0 20 20" id="location" xmlns="http://www.w3.org/2000/svg"><path d="M10 0a7.04 7.04 0 00-7.031 7.031c0 1.31.363 2.589 1.05 3.698l5.58 8.994a.586.586 0 00.499.277h.004a.586.586 0 00.498-.285l5.44-9.081a7.023 7.023 0 00.991-3.603A7.04 7.04 0 0010 0zm5.034 10.032l-4.945 8.256-5.075-8.177a5.852 5.852 0 01-.881-3.08A5.88 5.88 0 0110 1.164c3.23 0 5.863 2.636 5.863 5.867 0 1.06-.29 2.097-.83 3.001z"/><path d="M10 3.516A3.52 3.52 0 006.484 7.03 3.511 3.511 0 0010 10.547a3.509 3.509 0 003.516-3.516A3.52 3.52 0 0010 3.516zm0 5.867A2.353 2.353 0 017.648 7.03 2.36 2.36 0 0110 4.68a2.357 2.357 0 012.348 2.351A2.349 2.349 0 0110 9.383z"/></symbol><symbol viewBox="0 0 20 20" id="mail" xmlns="http://www.w3.org/2000/svg"><path d="M18.242 2.383H1.758A1.76 1.76 0 000 4.14v11.718a1.76 1.76 0 001.758 1.758h16.484A1.76 1.76 0 0020 15.86V4.141a1.76 1.76 0 00-1.758-1.758zM18 3.555l-7.963 7.962-8.03-7.962H18zM1.172 15.617V4.377l5.644 5.596-5.644 5.644zm.829.828l5.647-5.647 1.979 1.962a.585.585 0 00.826-.002l1.93-1.93L18 16.446H2zm16.827-.828L13.211 10l5.617-5.617v11.234z"/></symbol><symbol viewBox="0 0 20 20" id="phone" xmlns="http://www.w3.org/2000/svg"><path d="M16.836 11.922c-.436-.453-.963-.694-1.52-.694-.554 0-1.085.237-1.54.69l-1.422 1.41c-.117-.062-.234-.12-.347-.178a5.727 5.727 0 01-.445-.238c-1.332-.842-2.543-1.94-3.704-3.36-.562-.708-.94-1.304-1.215-1.909.369-.336.711-.685 1.044-1.021.126-.126.252-.256.378-.381.945-.94.945-2.16 0-3.1L6.837 1.918c-.14-.14-.284-.283-.419-.426a20.83 20.83 0 00-.846-.833C5.135.229 4.613 0 4.064 0s-1.08.228-1.53.659l-.009.009-1.53 1.536A3.272 3.272 0 00.02 4.288c-.11 1.308.278 2.527.575 3.324.729 1.958 1.818 3.772 3.442 5.717a21.167 21.167 0 007.052 5.497c1.035.488 2.417 1.066 3.96 1.165.095.005.194.009.284.009 1.04 0 1.913-.372 2.597-1.111.004-.01.013-.014.018-.023.234-.282.504-.537.787-.81.194-.184.392-.377.585-.578.446-.462.68-1 .68-1.55 0-.556-.238-1.09-.693-1.537l-2.47-2.469zm1.611 4.718c-.004 0-.004.004 0 0-.175.188-.355.358-.549.546-.292.278-.59.57-.868.896-.455.484-.99.713-1.692.713-.068 0-.14 0-.207-.005-1.337-.085-2.58-.604-3.51-1.048a19.978 19.978 0 01-6.643-5.18c-1.535-1.84-2.56-3.543-3.24-5.371-.419-1.116-.572-1.985-.504-2.805.045-.524.247-.959.62-1.33L3.39 1.528c.22-.206.455-.318.684-.318.284 0 .513.17.657.313l.014.014c.274.255.535.52.81.802.14.143.283.286.427.434L7.21 3.996c.477.475.477.914 0 1.39-.13.13-.256.26-.387.385-.378.385-.738.743-1.13 1.093-.009.009-.018.013-.022.022-.387.386-.315.762-.234 1.017l.013.04c.32.771.77 1.497 1.454 2.362l.005.004c1.242 1.523 2.551 2.71 3.996 3.62.184.117.373.21.553.3.162.081.315.157.446.238.018.009.036.022.054.031a.978.978 0 00.445.112c.374 0 .608-.233.684-.309l1.54-1.532c.153-.152.396-.336.68-.336.278 0 .508.175.647.327l.01.009 2.479 2.469c.463.456.463.927.004 1.402z"/></symbol><symbol viewBox="0 0 10 10" id="plus" xmlns="http://www.w3.org/2000/svg"><path d="M9.61 4.61H5.39V.39a.39.39 0 10-.78 0v4.22H.39a.39.39 0 100 .78h4.22v4.22a.39.39 0 10.78 0V5.39h4.22a.39.39 0 100-.78z"/></symbol><symbol viewBox="0 0 20 20" id="search" xmlns="http://www.w3.org/2000/svg"><g clip-path="url(#kclip0)"><path d="M19.772 18.673l-4.88-4.881a8.378 8.378 0 001.943-5.374C16.835 3.776 13.06 0 8.418 0 3.776 0 0 3.776 0 8.418c0 4.641 3.776 8.417 8.418 8.417a8.37 8.37 0 005.373-1.944l4.882 4.881a.775.775 0 001.1 0 .777.777 0 000-1.1zM1.555 8.418a6.87 6.87 0 016.863-6.863 6.87 6.87 0 016.862 6.863 6.87 6.87 0 01-6.862 6.862 6.87 6.87 0 01-6.863-6.862z"/></g><defs><clipPath id="kclip0"><path d="M0 0h20v20H0z"/></clipPath></defs></symbol><symbol viewBox="0 0 16 16" id="telegram" xmlns="http://www.w3.org/2000/svg"><path d="M14.629 3.698l-2.012 9.618c-.152.679-.548.848-1.11.528l-3.066-2.29-1.48 1.442c-.163.166-.3.305-.616.305l.22-3.165 5.683-5.204c.247-.223-.054-.347-.384-.123L4.839 9.29l-3.024-.959c-.658-.208-.67-.667.137-.986L13.78 2.727c.548-.208 1.027.124.849.971z"/></symbol><symbol viewBox="0 0 20 20" id="user" xmlns="http://www.w3.org/2000/svg"><path d="M10 0a5.28 5.28 0 00-5.273 5.273A5.28 5.28 0 0010 10.547a5.28 5.28 0 005.273-5.274A5.28 5.28 0 0010 0zm0 9.375a4.106 4.106 0 01-4.102-4.102A4.106 4.106 0 0110 1.172a4.106 4.106 0 014.102 4.101A4.106 4.106 0 0110 9.375zm6.561 4.617a7.518 7.518 0 00-5.39-2.273H8.829a7.518 7.518 0 00-5.39 2.273 7.685 7.685 0 00-2.227 5.422c0 .324.262.586.586.586h16.406a.586.586 0 00.586-.586 7.685 7.685 0 00-2.228-5.422zM2.41 18.828c.293-3.323 3.06-5.937 6.42-5.937h2.343c3.359 0 6.126 2.614 6.42 5.937H2.408z"/></symbol><symbol viewBox="0 0 16 16" id="viber" xmlns="http://www.w3.org/2000/svg"><path d="M8 1.335c-1.071.013-3.374.19-4.662 1.37-.958.948-1.292 2.35-1.331 4.084-.033 1.728-.072 4.973 3.058 5.856v1.346s-.02.538.337.648c.438.14.688-.275 1.105-.72l.778-.879c2.142.178 3.782-.232 3.97-.293.435-.139 2.883-.451 3.283-3.696.41-3.351-.2-5.463-1.301-6.418h-.007c-.332-.306-1.668-1.279-4.652-1.29 0 0-.222-.014-.578-.008zm.037.942a7.02 7.02 0 01.488.011c2.527.007 3.732.767 4.017 1.023.927.794 1.405 2.697 1.055 5.495-.332 2.713-2.317 2.885-2.685 3.002-.156.05-1.6.406-3.42.289 0 0-1.356 1.634-1.78 2.055-.067.074-.146.095-.196.085-.071-.018-.093-.107-.089-.229l.013-2.233c-2.655-.733-2.498-3.5-2.47-4.946.033-1.446.304-2.628 1.113-3.43 1.088-.982 3.043-1.115 3.953-1.122zm.2 1.446a.166.166 0 100 .332 3.136 3.136 0 012.242.883c.606.588.9 1.378.912 2.411 0 .092.074.167.167.167V7.51a.167.167 0 00.168-.165 3.588 3.588 0 00-1.009-2.646c-.66-.645-1.496-.977-2.48-.977zm-2.198.382a.523.523 0 00-.342.067H5.69a2.61 2.61 0 00-.637.523 1.003 1.003 0 00-.256.525.71.71 0 00.026.302l.01.006c.172.504.396.988.67 1.444a8.48 8.48 0 001.29 1.762l.015.022.024.017.015.018.017.015c.532.505 1.127.94 1.769 1.295.734.4 1.18.588 1.447.667v.004c.078.024.15.034.221.034.228-.016.444-.109.613-.262a2.53 2.53 0 00.517-.638v-.004c.128-.241.085-.469-.1-.623-.37-.323-.77-.61-1.195-.857-.285-.155-.574-.061-.69.095l-.25.315c-.129.156-.361.134-.361.134l-.007.004C7.093 8.527 6.63 6.772 6.63 6.772s-.022-.239.139-.36l.312-.252c.15-.122.254-.41.094-.695a7.498 7.498 0 00-.856-1.194.475.475 0 00-.28-.167zm2.486.495c-.221 0-.221.334.003.334A2.098 2.098 0 0110 5.572 1.94 1.94 0 0110.5 7a.168.168 0 00.167.165l.007.009a.169.169 0 00.167-.167c.015-.662-.191-1.218-.595-1.663C9.84 4.9 9.273 4.65 8.549 4.6h-.024zm.274.898c-.228-.006-.236.335-.01.341.55.029.816.306.851.877a.166.166 0 00.165.163h.007a.168.168 0 00.16-.178c-.039-.744-.445-1.164-1.166-1.202H8.8z"/></symbol><symbol viewBox="0 0 24 24" id="vk" xmlns="http://www.w3.org/2000/svg"><path d="M21.579 6.855c.14-.465 0-.806-.662-.806h-2.193c-.558 0-.813.295-.953.619 0 0-1.115 2.719-2.695 4.482-.51.513-.743.675-1.021.675-.139 0-.341-.162-.341-.627V6.855c0-.558-.161-.806-.626-.806H9.642c-.348 0-.558.258-.558.504 0 .528.79.65.871 2.138v3.228c0 .707-.127.836-.407.836-.743 0-2.551-2.73-3.624-5.853-.209-.607-.42-.852-.98-.852H2.752c-.627 0-.752.295-.752.619 0 .582.743 3.462 3.461 7.27 1.812 2.602 4.363 4.012 6.687 4.012 1.393 0 1.565-.313 1.565-.853v-1.966c0-.626.133-.752.574-.752.324 0 .882.164 2.183 1.417 1.486 1.486 1.732 2.153 2.567 2.153h2.192c.626 0 .939-.313.759-.931-.197-.615-.907-1.51-1.849-2.57-.512-.603-1.277-1.253-1.51-1.578-.325-.42-.231-.604 0-.976.001 0 2.672-3.761 2.95-5.04z"/></symbol><symbol viewBox="0 0 16 16" id="whatsapp" xmlns="http://www.w3.org/2000/svg"><path fill-rule="evenodd" clip-rule="evenodd" d="M12.269 3.755A5.947 5.947 0 008.035 2 5.994 5.994 0 002.05 7.985a5.98 5.98 0 00.799 2.992L2 14.077l3.173-.832c.877.477 1.86.728 2.86.728h.002a5.993 5.993 0 005.533-8.276 5.953 5.953 0 00-1.3-1.942zm-4.234 9.208h-.002c-.89 0-1.765-.24-2.532-.694l-.181-.108-1.883.494.502-1.835-.118-.188a4.965 4.965 0 01-.76-2.647 4.982 4.982 0 016.88-4.597c.604.25 1.152.618 1.613 1.081a4.946 4.946 0 011.455 3.52 4.982 4.982 0 01-4.974 4.974zm2.729-3.726c-.15-.075-.885-.436-1.022-.486-.137-.05-.236-.075-.336.074-.1.15-.387.486-.474.586-.087.1-.175.112-.324.038-.15-.075-.631-.233-1.203-.742a4.505 4.505 0 01-.832-1.036c-.087-.15-.009-.231.066-.306.068-.066.15-.174.224-.262.075-.087.1-.149.15-.249.05-.1.025-.187-.013-.262-.037-.075-.337-.811-.461-1.11-.121-.29-.244-.252-.336-.256a6.418 6.418 0 00-.286-.005.55.55 0 00-.4.186c-.137.15-.523.512-.523 1.248s.536 1.447.61 1.547c.075.1 1.055 1.61 2.555 2.258.358.154.636.246.853.315.358.114.684.098.942.06.287-.043.885-.362 1.01-.711.124-.35.124-.649.087-.711-.038-.063-.138-.101-.287-.176z"/></symbol></svg>