<svg width="20" height="20" viewBox="0 0 20 20" fill="none" xmlns="http://www.w3.org/2000/svg">
<path d="M10.3125 9.375H9.6875C9.60462 9.375 9.52513 9.34208 9.46653 9.28347C9.40792 9.22487 9.375 9.14538 9.375 9.0625C9.375 8.97962 9.34208 8.90013 9.28347 8.84153C9.22487 8.78292 9.14538 8.75 9.0625 8.75C8.97962 8.75 8.90013 8.78292 8.84153 8.84153C8.78292 8.90013 8.75 8.97962 8.75 9.0625C8.75 9.31114 8.84877 9.5496 9.02459 9.72541C9.2004 9.90123 9.43886 10 9.6875 10V10.3125C9.6875 10.3954 9.72042 10.4749 9.77903 10.5335C9.83763 10.5921 9.91712 10.625 10 10.625C10.0829 10.625 10.1624 10.5921 10.221 10.5335C10.2796 10.4749 10.3125 10.3954 10.3125 10.3125V10C10.5611 10 10.7996 9.90123 10.9754 9.72541C11.1512 9.5496 11.25 9.31114 11.25 9.0625C11.25 8.81386 11.1512 8.5754 10.9754 8.39959C10.7996 8.22377 10.5611 8.125 10.3125 8.125H9.6875C9.60462 8.125 9.52513 8.09208 9.46653 8.03347C9.40792 7.97487 9.375 7.89538 9.375 7.8125C9.375 7.72962 9.40792 7.65013 9.46653 7.59153C9.52513 7.53292 9.60462 7.5 9.6875 7.5H10.3125C10.3954 7.5 10.4749 7.53292 10.5335 7.59153C10.5921 7.65013 10.625 7.72962 10.625 7.8125C10.625 7.89538 10.6579 7.97487 10.7165 8.03347C10.7751 8.09208 10.8546 8.125 10.9375 8.125C11.0204 8.125 11.0999 8.09208 11.1585 8.03347C11.2171 7.97487 11.25 7.89538 11.25 7.8125C11.25 7.56386 11.1512 7.3254 10.9754 7.14959C10.7996 6.97377 10.5611 6.875 10.3125 6.875V6.5625C10.3125 6.47962 10.2796 6.40013 10.221 6.34153C10.1624 6.28292 10.0829 6.25 10 6.25C9.91712 6.25 9.83763 6.28292 9.77903 6.34153C9.72042 6.40013 9.6875 6.47962 9.6875 6.5625V6.875C9.43886 6.875 9.2004 6.97377 9.02459 7.14959C8.84877 7.3254 8.75 7.56386 8.75 7.8125C8.75 8.06114 8.84877 8.2996 9.02459 8.47541C9.2004 8.65123 9.43886 8.75 9.6875 8.75H10.3125C10.3954 8.75 10.4749 8.78292 10.5335 8.84153C10.5921 8.90013 10.625 8.97962 10.625 9.0625C10.625 9.14538 10.5921 9.22487 10.5335 9.28347C10.4749 9.34208 10.3954 9.375 10.3125 9.375Z" fill="white"/>
<path d="M9.99999 11.875C10.6799 11.875 11.3445 11.6734 11.9098 11.2957C12.4751 10.918 12.9156 10.3811 13.1758 9.75298C13.436 9.12485 13.5041 8.43369 13.3714 7.76688C13.2388 7.10007 12.9114 6.48756 12.4307 6.00682C11.9499 5.52608 11.3374 5.19869 10.6706 5.06605C10.0038 4.93342 9.31264 5.00149 8.68452 5.26167C8.0564 5.52184 7.51954 5.96243 7.14182 6.52773C6.76411 7.09302 6.5625 7.75763 6.5625 8.4375C6.56358 9.34885 6.92608 10.2226 7.57051 10.867C8.21493 11.5114 9.08864 11.8739 9.99999 11.875ZM9.99999 5.625C10.5563 5.625 11.1 5.78995 11.5625 6.09899C12.025 6.40803 12.3855 6.84729 12.5984 7.3612C12.8113 7.87512 12.867 8.44062 12.7584 8.98619C12.6499 9.53176 12.3821 10.0329 11.9887 10.4262C11.5954 10.8196 11.0943 11.0874 10.5487 11.196C10.0031 11.3045 9.43761 11.2488 8.9237 11.0359C8.40978 10.823 7.97053 10.4626 7.66149 10C7.35245 9.53753 7.1875 8.99376 7.1875 8.4375C7.18833 7.69183 7.48491 6.97694 8.01217 6.44968C8.53944 5.92241 9.25433 5.62583 9.99999 5.625Z" fill="white"/>
<path d="M19.0625 16.2498H18.4375V7.18734C18.4368 6.93892 18.3377 6.7009 18.1621 6.52524C17.9864 6.34959 17.7484 6.25058 17.5 6.24984H14.1437C13.7461 5.49536 13.15 4.86377 12.4198 4.42319C11.6895 3.9826 10.8529 3.74976 10 3.74976C9.14714 3.74976 8.31047 3.9826 7.58023 4.42319C6.84999 4.86377 6.2539 5.49536 5.85625 6.24984H2.5C2.25159 6.25058 2.01356 6.34959 1.83791 6.52524C1.66225 6.7009 1.56324 6.93892 1.5625 7.18734V16.2498H0.9375C0.85462 16.2498 0.775134 16.2828 0.716529 16.3414C0.657924 16.4 0.625 16.4795 0.625 16.5623V17.8123C0.625 18.2267 0.78962 18.6242 1.08265 18.9172C1.37567 19.2102 1.7731 19.3748 2.1875 19.3748H17.8125C18.2269 19.3748 18.6243 19.2102 18.9174 18.9172C19.2104 18.6242 19.375 18.2267 19.375 17.8123V16.5623C19.375 16.4795 19.3421 16.4 19.2835 16.3414C19.2249 16.2828 19.1454 16.2498 19.0625 16.2498ZM10 4.37484C10.8035 4.37484 11.5889 4.6131 12.257 5.05949C12.9251 5.50588 13.4458 6.14036 13.7533 6.88268C14.0607 7.62501 14.1412 8.44184 13.9844 9.22989C13.8277 10.0179 13.4408 10.7418 12.8726 11.31C12.3045 11.8781 11.5806 12.265 10.7926 12.4218C10.0045 12.5785 9.18767 12.4981 8.44535 12.1906C7.70302 11.8831 7.06855 11.3624 6.62215 10.6943C6.17576 10.0263 5.9375 9.24082 5.9375 8.43734C5.93849 7.3602 6.36682 6.32746 7.12848 5.56581C7.89013 4.80416 8.92286 4.37583 10 4.37484ZM14.375 12.4998C14.4579 12.4998 14.5374 12.5328 14.596 12.5914C14.6546 12.65 14.6875 12.7295 14.6875 12.8123C14.6879 12.8541 14.6794 12.8954 14.6627 12.9336C14.646 12.9718 14.6215 13.0061 14.5906 13.0342C14.5629 13.0635 14.5295 13.0866 14.4924 13.1022C14.4552 13.1178 14.4153 13.1255 14.375 13.1248H5.625C5.54212 13.1248 5.46263 13.0919 5.40403 13.0333C5.34542 12.9747 5.3125 12.8952 5.3125 12.8123C5.31213 12.7706 5.32057 12.7293 5.33727 12.6911C5.35396 12.6528 5.37853 12.6185 5.40937 12.5905C5.43705 12.5612 5.47052 12.538 5.50765 12.5224C5.54477 12.5068 5.58474 12.4991 5.625 12.4998H7.67188C8.37947 12.9092 9.1825 13.1248 10 13.1248C10.8175 13.1248 11.6205 12.9092 12.3281 12.4998H14.375ZM6.825 11.8748H5.625C5.37636 11.8748 5.1379 11.9736 4.96209 12.1494C4.78627 12.3252 4.6875 12.5637 4.6875 12.8123C4.68824 13.0607 4.78725 13.2988 4.96291 13.4744C5.13856 13.6501 5.37659 13.7491 5.625 13.7498H14.375C14.6236 13.7498 14.8621 13.6511 15.0379 13.4752C15.2137 13.2994 15.3125 13.061 15.3125 12.8123C15.3118 12.5639 15.2127 12.3259 15.0371 12.1502C14.8614 11.9746 14.6234 11.8756 14.375 11.8748H13.175C13.6516 11.438 14.0321 10.9068 14.2925 10.315C14.5529 9.72327 14.6874 9.08385 14.6875 8.43734C14.6875 8.33109 14.6781 8.22796 14.6719 8.12484H16.5625V14.9998H3.4375V8.12484H5.32812C5.32187 8.22796 5.3125 8.33109 5.3125 8.43734C5.31261 9.08385 5.44713 9.72327 5.7075 10.315C5.96788 10.9068 6.34843 11.438 6.825 11.8748ZM2.1875 7.18734C2.1875 7.10446 2.22042 7.02497 2.27903 6.96636C2.33763 6.90776 2.41712 6.87484 2.5 6.87484H5.5875C5.51109 7.07819 5.45049 7.28715 5.40625 7.49984H3.125C3.04212 7.49984 2.96263 7.53276 2.90403 7.59136C2.84542 7.64997 2.8125 7.72946 2.8125 7.81234V15.3123C2.8125 15.3952 2.84542 15.4747 2.90403 15.5333C2.96263 15.5919 3.04212 15.6248 3.125 15.6248H16.875C16.9579 15.6248 17.0374 15.5919 17.096 15.5333C17.1546 15.4747 17.1875 15.3952 17.1875 15.3123V7.81234C17.1875 7.72946 17.1546 7.64997 17.096 7.59136C17.0374 7.53276 16.9579 7.49984 16.875 7.49984H14.5938C14.5495 7.28715 14.4889 7.07819 14.4125 6.87484H17.5C17.5829 6.87484 17.6624 6.90776 17.721 6.96636C17.7796 7.02497 17.8125 7.10446 17.8125 7.18734V16.2498H2.1875V7.18734ZM11.25 16.8748V17.1873C11.25 17.2702 11.2171 17.3497 11.1585 17.4083C11.0999 17.4669 11.0204 17.4998 10.9375 17.4998H9.0625C8.97962 17.4998 8.90013 17.4669 8.84153 17.4083C8.78292 17.3497 8.75 17.2702 8.75 17.1873V16.8748H11.25ZM18.75 17.8123C18.7493 18.0607 18.6502 18.2988 18.4746 18.4744C18.2989 18.6501 18.0609 18.7491 17.8125 18.7498H2.1875C1.93909 18.7491 1.70106 18.6501 1.52541 18.4744C1.34975 18.2988 1.25074 18.0607 1.25 17.8123V16.8748H8.125V17.1873C8.12574 17.4357 8.22475 17.6738 8.40041 17.8494C8.57606 18.0251 8.81409 18.1241 9.0625 18.1248H10.9375C11.1859 18.1241 11.4239 18.0251 11.5996 17.8494C11.7752 17.6738 11.8743 17.4357 11.875 17.1873V16.8748H18.75V17.8123Z" fill="white"/>
<path d="M15.3849 5.5125C15.4142 5.54778 15.4509 5.57617 15.4925 5.59565C15.534 5.61513 15.5793 5.62523 15.6252 5.62523C15.6711 5.62523 15.7164 5.61513 15.7579 5.59565C15.7994 5.57617 15.8362 5.54778 15.8655 5.5125L17.428 3.6375C17.466 3.59185 17.4902 3.53632 17.4978 3.4774C17.5054 3.41848 17.496 3.35862 17.4708 3.30483C17.4456 3.25104 17.4056 3.20556 17.3554 3.17371C17.3053 3.14186 17.2471 3.12496 17.1877 3.125H16.5627V0.9375C16.5627 0.85462 16.5298 0.775134 16.4712 0.716529C16.4126 0.657924 16.3331 0.625 16.2502 0.625H15.0002C14.9173 0.625 14.8378 0.657924 14.7792 0.716529C14.7206 0.775134 14.6877 0.85462 14.6877 0.9375V3.125H14.0627C14.0033 3.12496 13.9451 3.14186 13.895 3.17371C13.8448 3.20556 13.8048 3.25104 13.7796 3.30483C13.7543 3.35862 13.745 3.41848 13.7526 3.4774C13.7601 3.53632 13.7844 3.59185 13.8224 3.6375L15.3849 5.5125ZM15.0002 3.75C15.0831 3.75 15.1626 3.71708 15.2212 3.65847C15.2798 3.59987 15.3127 3.52038 15.3127 3.4375V1.25H15.9377V3.4375C15.9377 3.52038 15.9706 3.59987 16.0292 3.65847C16.0878 3.71708 16.1673 3.75 16.2502 3.75H16.5205L15.6252 4.82438L14.7299 3.75H15.0002Z" fill="white"/>
<path d="M4.13488 5.5125C4.16421 5.54778 4.20094 5.57617 4.24247 5.59565C4.28401 5.61513 4.32932 5.62523 4.3752 5.62523C4.42107 5.62523 4.46638 5.61513 4.50792 5.59565C4.54945 5.57617 4.58618 5.54778 4.61551 5.5125L6.17801 3.6375C6.21603 3.59185 6.24025 3.53632 6.24783 3.4774C6.25542 3.41848 6.24605 3.35862 6.22083 3.30483C6.19561 3.25104 6.15558 3.20556 6.10543 3.17371C6.05529 3.14186 5.9971 3.12496 5.9377 3.125H5.3127V0.9375C5.3127 0.85462 5.27977 0.775134 5.22117 0.716529C5.16256 0.657924 5.08308 0.625 5.0002 0.625H3.7502C3.66732 0.625 3.58783 0.657924 3.52922 0.716529C3.47062 0.775134 3.4377 0.85462 3.4377 0.9375V3.125H2.8127C2.75329 3.12496 2.6951 3.14186 2.64496 3.17371C2.59481 3.20556 2.55478 3.25104 2.52956 3.30483C2.50434 3.35862 2.49497 3.41848 2.50256 3.4774C2.51014 3.53632 2.53436 3.59185 2.57238 3.6375L4.13488 5.5125ZM3.7502 3.75C3.83308 3.75 3.91256 3.71708 3.97117 3.65847C4.02977 3.59987 4.0627 3.52038 4.0627 3.4375V1.25H4.6877V3.4375C4.6877 3.52038 4.72062 3.59987 4.77922 3.65847C4.83783 3.71708 4.91732 3.75 5.0002 3.75H5.27051L4.3752 4.82438L3.47988 3.75H3.7502Z" fill="white"/>
</svg>
