<svg width="20" height="20" viewBox="0 0 20 20" fill="none" xmlns="http://www.w3.org/2000/svg">
<g clip-path="url(#clip0)">
<path d="M19.5363 5.72121C19.5303 5.71708 19.5241 5.71298 19.518 5.70898L17.1646 4.14038H17.2335V1.72768C17.2335 1.53734 17.0792 1.38301 16.8889 1.38301H15.1655C14.9752 1.38301 14.8208 1.53734 14.8208 1.72768V2.5773L11.5654 0.40587C11.4496 0.328577 11.2987 0.328577 11.1828 0.40587L3.23025 5.70898C2.7391 6.02913 2.60046 6.68685 2.92061 7.17801C3.24077 7.66916 3.89849 7.80781 4.38964 7.48765C4.3958 7.48364 4.40192 7.47955 4.40795 7.47541L5.51473 6.73747V13.4465H4.82539C4.82539 13.2561 4.67107 13.1018 4.48072 13.1018H1.72335C1.53301 13.1018 1.37868 13.2561 1.37868 13.4465H0V14.1358H1.37868V17.5825H0V18.2719H1.37868C1.37868 18.4622 1.53301 18.6166 1.72335 18.6166H4.48072C4.67107 18.6166 4.82539 18.4622 4.82539 18.2719V18.1406L7.3987 19.209C8.80164 19.7815 10.3698 19.7987 11.785 19.2573L17.1095 17.2275C17.4248 17.1076 17.6785 16.8657 17.8133 16.5565C17.953 16.2428 17.9603 15.886 17.8336 15.5669C17.7209 15.2816 17.5074 15.0477 17.2335 14.9096V6.73747L18.3403 7.47541C18.8247 7.80569 19.4851 7.68075 19.8154 7.19636C20.1457 6.71192 20.0208 6.05149 19.5363 5.72121ZM4.13605 17.9272H2.06803V13.7912H4.13605V17.9272ZM15.5102 2.07235H16.5442V3.72677L15.5102 3.03743V2.07235ZM17.1829 16.278C17.1218 16.4185 17.0068 16.5285 16.8637 16.5833L11.5392 18.6135C10.2881 19.0926 8.90147 19.0776 7.661 18.5714L4.82539 17.3937V14.1358H5.69913C6.84202 14.1372 7.96905 14.4033 8.99177 14.9134C9.32964 15.0816 9.70179 15.1694 10.0792 15.1698H12.7528C13.0383 15.1715 13.2685 15.4043 13.2668 15.6899C13.2654 15.9292 13.1 16.1363 12.8669 16.1904C12.8218 16.1946 12.7773 16.2039 12.7315 16.2039H8.61677V16.8932H12.7315C12.7387 16.8932 12.7456 16.8932 12.7528 16.8932C12.7597 16.8932 12.7663 16.8911 12.7735 16.8911C13.047 16.8866 13.3171 16.8295 13.569 16.7229L16.4508 15.4994C16.5881 15.4408 16.7433 15.4408 16.8806 15.4994C17.0233 15.56 17.1352 15.6759 17.1908 15.8206C17.2495 15.968 17.2466 16.1327 17.1829 16.278ZM12.7528 14.4805H10.0792C9.80877 14.48 9.54208 14.4172 9.29991 14.2968C8.33384 13.8154 7.28126 13.5322 6.20407 13.4637V6.27734L11.3741 2.83063L16.5442 6.27734V14.7776C16.4196 14.7882 16.2972 14.8175 16.1813 14.8645L13.9464 15.8137C13.9529 15.7717 13.9572 15.7293 13.9592 15.6869C13.9592 15.0206 13.4191 14.4805 12.7528 14.4805ZM19.1051 6.92015V6.91912C18.9842 6.98486 18.8366 6.9778 18.7225 6.90085L11.5654 2.13026C11.4496 2.05297 11.2987 2.05297 11.1828 2.13026L4.02576 6.90188C3.85445 7.01592 3.62318 6.96948 3.50914 6.79818C3.46842 6.737 3.44671 6.66518 3.44671 6.59168C3.44649 6.46704 3.50875 6.35054 3.61249 6.28147L11.3741 1.10727L19.1358 6.28251C19.2395 6.35161 19.3018 6.46807 19.3016 6.59271C19.3026 6.73006 19.2268 6.85647 19.1051 6.92015Z" fill="white"/>
<path d="M3.44715 16.5486H2.75781V17.2379H3.44715V16.5486Z" fill="white"/>
<path d="M12.3635 9.75668C12.284 9.50124 12.1036 9.28935 11.864 9.17018L11.1923 8.83413C11.0468 8.76149 10.9878 8.58471 11.0605 8.43926C11.1103 8.33957 11.2121 8.27653 11.3236 8.27645H11.4242C11.5867 8.27684 11.7182 8.40837 11.7186 8.5708V8.62112H12.4079V8.5708C12.4063 8.14254 12.1274 7.7647 11.7186 7.63708V7.24243H11.0292V7.63708C10.5123 7.79787 10.2235 8.34728 10.3843 8.86424C10.4638 9.11969 10.6442 9.33157 10.8838 9.45075L11.5555 9.7868C11.701 9.85944 11.76 10.0362 11.6873 10.1817C11.6375 10.2814 11.5357 10.3444 11.4242 10.3445H11.3236C11.1612 10.3441 11.0296 10.2126 11.0292 10.0501V9.99981H10.3399V10.0501C10.3415 10.4784 10.6204 10.8562 11.0292 10.9838V11.3785H11.7186V10.9838C12.2355 10.8231 12.5243 10.2736 12.3635 9.75668Z" fill="white"/>
<path d="M11.3744 5.86377C9.47173 5.86584 7.92985 7.40776 7.92773 9.31047C7.92773 11.214 9.47087 12.7572 11.3744 12.7572C13.278 12.7572 14.8212 11.214 14.8212 9.31047C14.8212 7.40694 13.278 5.86377 11.3744 5.86377ZM11.3744 12.0678C9.8516 12.0678 8.61708 10.8333 8.61708 9.31047C8.61708 7.78763 9.8516 6.55311 11.3744 6.55311C12.8966 6.55483 14.1301 7.78832 14.1318 9.31047C14.1318 10.8334 12.8973 12.0678 11.3744 12.0678Z" fill="white"/>
<path d="M13.4423 8.96582H12.7529V9.65516H13.4423V8.96582Z" fill="white"/>
<path d="M9.99501 8.96582H9.30566V9.65516H9.99501V8.96582Z" fill="white"/>
</g>
<defs>
<clipPath id="clip0">
<rect width="20" height="20" fill="white"/>
</clipPath>
</defs>
</svg>
