<?xml version="1.0" encoding="utf-8"?><svg xmlns="http://www.w3.org/2000/svg" xmlns:xlink="http://www.w3.org/1999/xlink"><symbol viewBox="0 0 22 24" id="basket" xmlns="http://www.w3.org/2000/svg"><g clip-path="url(#aaclip0)"><path d="M10.363 18.443a2.046 2.046 0 00-2.045 2.042 2.046 2.046 0 004.09 0 2.046 2.046 0 00-2.045-2.042zm6.134 0a2.046 2.046 0 00-2.045 2.042 2.046 2.046 0 004.089 0 2.046 2.046 0 00-2.044-2.042zm3.978-8.199L7.413 6.891a.614.614 0 00-.75.73L8.67 16.4h-.786L5.482 5.895a.613.613 0 00-.474-.464l-4.27-.882A.614.614 0 00.489 5.75l3.885.802L6.797 17.15a.613.613 0 00.598.477h12.07a.615.615 0 00.607-.53l.858-6.175a.613.613 0 00-.455-.678zm-8.14 3.91a.613.613 0 01-1.227 0v-2.696a.613.613 0 011.227 0v2.696zm2.625 0a.613.613 0 01-1.227 0v-1.88a.613.613 0 011.227 0v1.88zm2.625 0a.613.613 0 01-1.227 0v-1.226a.613.613 0 011.227 0v1.226z"/></g><path fill-rule="evenodd" clip-rule="evenodd" d="M16.268 4.568a2.996 2.996 0 00-1.693-.523c-.627 0-1.21.193-1.693.523-.28-.843-.492-1.752-.492-2.383C12.39.98 13.37 0 14.575 0s2.185.98 2.185 2.185c0 .631-.212 1.54-.492 2.383zm-4.722 2.274l.024.006v-.011l-.024.005zm4.972 1.217c-1.333-.33-2.766-.681-4.129-1.013a2.185 2.185 0 114.129 1.013zm4.436 1.103c-.866-.217-2.155-.538-3.618-.9a2.995 2.995 0 00.243-1.425c.87.18 1.762.45 2.308.765.596.344.969.928 1.067 1.56zM9.869 6.439c-.36-.086-.706-.167-1.03-.243a2.19 2.19 0 01-.376-2.667 2.188 2.188 0 013.147-.7c.098.738.338 1.599.61 2.353a3.01 3.01 0 00-.449.774c-.628.113-1.305.278-1.902.483zm10.124.075a3.43 3.43 0 01-.217.114c-.696-.295-1.587-.526-2.397-.672a3.01 3.01 0 00-.449-.774c.262-.727.494-1.553.599-2.273.095-.067.189-.128.278-.18a2.188 2.188 0 012.986.8 2.188 2.188 0 01-.8 2.985z"/><defs><clipPath id="aaclip0"><path transform="translate(0 3.064)" d="M0 0h20.936v20.936H0z"/></clipPath></defs></symbol><symbol viewBox="0 0 11 8" id="check" xmlns="http://www.w3.org/2000/svg"><path d="M9.852.21l-5.31 6.233a.34.34 0 01-.533 0L1.954 4.03a.546.546 0 00-.86 0 .805.805 0 000 1.01L3.15 7.453c.31.365.719.547 1.127.547.408 0 .816-.182 1.127-.547l5.309-6.234a.804.804 0 000-1.01.547.547 0 00-.86 0z"/></symbol><symbol viewBox="0 0 10 10" id="chevron-down" xmlns="http://www.w3.org/2000/svg"><g clip-path="url(#acclip0)"><path d="M5.274 7.586l4.613-4.625a.388.388 0 00-.55-.547L5 6.764.662 2.414a.388.388 0 10-.549.547l4.613 4.625a.387.387 0 00.548 0z"/></g><defs><clipPath id="acclip0"><path transform="rotate(90 5 5)" d="M0 0h10v10H0z"/></clipPath></defs></symbol><symbol viewBox="0 0 10 10" id="chevron-left" xmlns="http://www.w3.org/2000/svg"><g clip-path="url(#adclip0)"><path d="M2.413 5.274L7.04 9.887a.388.388 0 00.547-.55L3.236 5 7.586.662A.388.388 0 107.04.113L2.413 4.726a.387.387 0 000 .548z"/></g><defs><clipPath id="adclip0"><rect x="10" y="10" width="10" height="10" rx="5" transform="rotate(180 10 10)"/></clipPath></defs></symbol><symbol viewBox="0 0 10 10" id="chevron-right" xmlns="http://www.w3.org/2000/svg"><g clip-path="url(#aeclip0)"><path d="M7.587 5.274L2.96 9.887a.388.388 0 01-.547-.55L6.764 5 2.414.662A.388.388 0 112.96.113l4.626 4.613a.387.387 0 010 .548z"/></g><defs><clipPath id="aeclip0"><rect width="10" height="10" rx="5" transform="matrix(1 0 0 -1 0 10)"/></clipPath></defs></symbol><symbol viewBox="0 0 14 14" id="close" xmlns="http://www.w3.org/2000/svg"><path d="M8.019 7.01l5.754-5.729a.694.694 0 000-.989.709.709 0 00-.998 0L7.027 6.016 1.225.207a.704.704 0 00-.998 0 .71.71 0 000 1.001l5.798 5.805-5.819 5.793a.695.695 0 000 .989.709.709 0 00.998 0l5.813-5.788 5.78 5.786a.704.704 0 00.997 0 .71.71 0 000-1.001L8.019 7.01z"/></symbol><symbol viewBox="0 0 24 24" id="fb" xmlns="http://www.w3.org/2000/svg"><path d="M13.397 20.997v-8.196h2.765l.411-3.209h-3.176V7.548c0-.926.258-1.56 1.587-1.56h1.684v-2.86A22.108 22.108 0 0014.201 3c-2.444 0-4.122 1.492-4.122 4.231v2.355H7.332v3.21h2.753v8.201h3.312z"/></symbol><symbol viewBox="0 0 20 20" id="heart" xmlns="http://www.w3.org/2000/svg"><path d="M10 18.887c-.285 0-.56-.103-.773-.29a232.44 232.44 0 00-2.274-1.956l-.004-.003c-2.015-1.717-3.755-3.2-4.965-4.66C.63 10.343 0 8.795 0 7.103c0-1.643.564-3.16 1.587-4.269a5.378 5.378 0 014-1.741A5.03 5.03 0 018.73 2.179c.47.363.895.807 1.27 1.326a6.43 6.43 0 011.27-1.326 5.03 5.03 0 013.143-1.085c1.544 0 2.965.618 4 1.741C19.438 3.945 20 5.461 20 7.105c0 1.69-.63 3.24-1.983 4.872-1.211 1.46-2.951 2.944-4.966 4.66-.688.587-1.468 1.252-2.278 1.96-.214.187-.488.29-.773.29zM5.587 2.265a4.22 4.22 0 00-3.14 1.364c-.822.893-1.276 2.127-1.276 3.475 0 1.423.53 2.695 1.715 4.125 1.145 1.383 2.85 2.836 4.823 4.517l.004.003c.69.588 1.471 1.255 2.285 1.966.82-.713 1.602-1.38 2.293-1.97 1.974-1.68 3.678-3.133 4.823-4.515 1.186-1.43 1.714-2.703 1.714-4.126 0-1.348-.453-2.582-1.276-3.475a4.22 4.22 0 00-3.139-1.364c-.889 0-1.705.283-2.426.84-.642.497-1.09 1.125-1.352 1.564A.734.734 0 0110 5.03a.734.734 0 01-.635-.36c-.262-.44-.71-1.068-1.352-1.565a3.885 3.885 0 00-2.426-.84z"/></symbol><symbol viewBox="0 0 20 20" id="heart-active" xmlns="http://www.w3.org/2000/svg"><path d="M14.688 1.172a4.74 4.74 0 00-2.958 1.022c-.84.65-1.4 1.479-1.73 2.08-.33-.601-.89-1.43-1.73-2.08a4.735 4.735 0 00-2.957-1.022C2.283 1.172 0 3.649 0 6.934c0 3.55 2.85 5.977 7.163 9.653.732.624 1.563 1.332 2.426 2.087a.624.624 0 00.822 0c.864-.755 1.694-1.463 2.427-2.087C17.15 12.91 20 10.483 20 6.934c0-3.285-2.284-5.762-5.313-5.762z"/></symbol><symbol viewBox="0 0 24 24" id="instagram" xmlns="http://www.w3.org/2000/svg"><path d="M11.999 7.377a4.624 4.624 0 100 9.248 4.624 4.624 0 000-9.248zm0 7.627a3.004 3.004 0 110-6.008 3.004 3.004 0 010 6.008zm4.807-6.719a1.078 1.078 0 100-2.156 1.078 1.078 0 000 2.156z"/><path d="M20.533 6.11A4.605 4.605 0 0017.9 3.48a6.607 6.607 0 00-2.186-.42c-.963-.042-1.268-.054-3.71-.054s-2.755 0-3.71.054a6.554 6.554 0 00-2.184.42 4.6 4.6 0 00-2.633 2.63 6.585 6.585 0 00-.419 2.186c-.043.962-.056 1.267-.056 3.71 0 2.442 0 2.753.056 3.71.015.748.156 1.486.419 2.187a4.61 4.61 0 002.634 2.632 6.583 6.583 0 002.185.45c.963.042 1.268.055 3.71.055s2.755 0 3.71-.055a6.616 6.616 0 002.186-.42 4.613 4.613 0 002.633-2.632c.263-.7.404-1.438.419-2.186.043-.962.056-1.267.056-3.71s0-2.753-.056-3.71a6.583 6.583 0 00-.421-2.217zm-1.218 9.533a5.046 5.046 0 01-.311 1.688 2.987 2.987 0 01-1.712 1.71c-.535.2-1.1.305-1.67.312-.95.044-1.218.055-3.654.055-2.438 0-2.687 0-3.655-.055a4.961 4.961 0 01-1.67-.311 2.984 2.984 0 01-1.718-1.711 5.08 5.08 0 01-.311-1.67c-.043-.95-.053-1.217-.053-3.653 0-2.437 0-2.686.053-3.655a5.038 5.038 0 01.311-1.687c.305-.79.93-1.41 1.719-1.712a5.01 5.01 0 011.669-.311c.95-.043 1.218-.055 3.655-.055s2.687 0 3.654.055a4.96 4.96 0 011.67.31 2.99 2.99 0 011.712 1.713 5.06 5.06 0 01.311 1.669c.043.95.054 1.218.054 3.655 0 2.436 0 2.698-.043 3.654h-.011v-.001z"/></symbol><symbol viewBox="0 0 20 20" id="location" xmlns="http://www.w3.org/2000/svg"><path d="M10 0a7.04 7.04 0 00-7.031 7.031c0 1.31.363 2.589 1.05 3.698l5.58 8.994a.586.586 0 00.499.277h.004a.586.586 0 00.498-.285l5.44-9.081a7.023 7.023 0 00.991-3.603A7.04 7.04 0 0010 0zm5.034 10.032l-4.945 8.256-5.075-8.177a5.852 5.852 0 01-.881-3.08A5.88 5.88 0 0110 1.164c3.23 0 5.863 2.636 5.863 5.867 0 1.06-.29 2.097-.83 3.001z"/><path d="M10 3.516A3.52 3.52 0 006.484 7.03 3.511 3.511 0 0010 10.547a3.509 3.509 0 003.516-3.516A3.52 3.52 0 0010 3.516zm0 5.867A2.353 2.353 0 017.648 7.03 2.36 2.36 0 0110 4.68a2.357 2.357 0 012.348 2.351A2.349 2.349 0 0110 9.383z"/></symbol><symbol viewBox="0 0 20 20" id="mail" xmlns="http://www.w3.org/2000/svg"><path d="M18.242 2.383H1.758A1.76 1.76 0 000 4.14v11.718a1.76 1.76 0 001.758 1.758h16.484A1.76 1.76 0 0020 15.86V4.141a1.76 1.76 0 00-1.758-1.758zM18 3.555l-7.963 7.962-8.03-7.962H18zM1.172 15.617V4.377l5.644 5.596-5.644 5.644zm.829.828l5.647-5.647 1.979 1.962a.585.585 0 00.826-.002l1.93-1.93L18 16.446H2zm16.827-.828L13.211 10l5.617-5.617v11.234z"/></symbol><symbol viewBox="0 0 30 30" id="marketing-1" xmlns="http://www.w3.org/2000/svg"><g clip-path="url(#amclip0)"><path d="M26.432 9.004h-1.033V.586a.586.586 0 00-.97-.442l-1.553 1.35A21.657 21.657 0 018.651 6.807H5.8C2.924 6.807.585 9.13.585 11.989c0 2.857 2.339 5.182 5.214 5.182h1.367v12.243c0 .324.262.586.586.586h3.36a2.104 2.104 0 002.102-2.102v-2.455h.888c1.16 0 2.105-.944 2.105-2.107 0-1.16-.945-2.105-2.105-2.105h-.888v-3.577a21.647 21.647 0 019.662 4.83l1.552 1.35a.586.586 0 00.97-.442v-8.418h1.034a2.987 2.987 0 002.983-2.987 2.986 2.986 0 00-2.983-2.983zM1.757 11.989c0-2.211 1.813-4.01 4.042-4.01h1.367v8.02H5.799C3.57 16 1.757 14.2 1.757 11.99zm12.345 10.414a.935.935 0 010 1.868h-.888v-1.868h.888zm-2.06 5.495a.93.93 0 01-.93.93H8.339V17.171h.314c1.141 0 2.275.09 3.39.265v10.462zm12.185-5.793l-.582-.506a22.8 22.8 0 00-2.47-1.867v-4.798a.586.586 0 00-1.172 0v4.08a22.827 22.827 0 00-11.351-3.015h-.314V7.98h.314c3.997 0 7.9-1.04 11.351-3.015v4.673a.586.586 0 001.172 0v-5.39a22.78 22.78 0 002.47-1.869l.582-.506v20.233zm2.205-8.303h-1.033v-3.627h1.033a1.814 1.814 0 010 3.627z"/><path d="M21.13 12.072a.59.59 0 00-.572-.36.591.591 0 00-.53.414.59.59 0 00.212.64.591.591 0 00.658.028c.24-.15.34-.46.232-.722z"/></g><defs><clipPath id="amclip0"><path d="M0 0h30v30H0z"/></clipPath></defs></symbol><symbol viewBox="0 0 30 30" id="marketing-2" xmlns="http://www.w3.org/2000/svg"><path d="M27.89 7.031H16.759V.586A.586.586 0 0016.172 0H2.109a.586.586 0 00-.586.586v28.828c0 .324.263.586.586.586h25.782a.586.586 0 00.586-.586V7.617a.586.586 0 00-.586-.586zM16.759 8.203h10.547V22.97H16.758V8.203zM7.383 28.828v-4.687h3.515v4.687H7.383zm4.101-5.86H6.797a.586.586 0 00-.586.587v5.273H2.695V1.172h12.89v27.656H12.07v-5.273a.586.586 0 00-.586-.586zm5.274 5.86v-4.687h10.547v4.687H16.758z"/><path d="M8.555 4.688h1.171a.586.586 0 00.586-.586V2.93a.586.586 0 00-.586-.586H8.555a.586.586 0 00-.586.586v1.172c0 .323.262.585.586.585zm0 4.102h1.171a.586.586 0 00.586-.587V7.031a.586.586 0 00-.586-.586H8.555a.586.586 0 00-.586.586v1.172c0 .324.262.586.586.586zm0 4.1h1.171a.586.586 0 00.586-.585v-1.172a.586.586 0 00-.586-.586H8.555a.586.586 0 00-.586.586v1.172c0 .323.262.586.586.586zm0 4.102h1.171a.586.586 0 00.586-.586v-1.172a.586.586 0 00-.586-.586H8.555a.586.586 0 00-.586.586v1.172c0 .324.262.586.586.586zm0 4.102h1.171a.586.586 0 00.586-.586v-1.172a.586.586 0 00-.586-.586H8.555a.586.586 0 00-.586.586v1.172c0 .323.262.586.586.586zM4.453 4.688h1.172a.586.586 0 00.586-.586V2.93a.586.586 0 00-.586-.586H4.453a.586.586 0 00-.586.586v1.172c0 .323.263.585.586.585zm0 4.102h1.172a.586.586 0 00.586-.587V7.031a.586.586 0 00-.586-.586H4.453a.586.586 0 00-.586.586v1.172c0 .324.263.586.586.586zm0 4.1h1.172a.586.586 0 00.586-.585v-1.172a.586.586 0 00-.586-.586H4.453a.586.586 0 00-.586.586v1.172c0 .323.263.586.586.586zm0 4.102h1.172a.586.586 0 00.586-.586v-1.172a.586.586 0 00-.586-.586H4.453a.586.586 0 00-.586.586v1.172c0 .324.263.586.586.586zm0 4.102h1.172a.586.586 0 00.586-.586v-1.172a.586.586 0 00-.586-.586H4.453a.586.586 0 00-.586.586v1.172c0 .323.263.586.586.586zm9.375-18.75h-1.172a.586.586 0 00-.586.586v1.172c0 .323.263.585.586.585h1.172a.586.586 0 00.586-.585V2.93a.586.586 0 00-.586-.586zm0 4.101h-1.172a.586.586 0 00-.586.586v1.172c0 .324.263.586.586.586h1.172a.586.586 0 00.586-.586V7.031a.586.586 0 00-.586-.586zm0 4.102h-1.172a.586.586 0 00-.586.586v1.172c0 .323.263.586.586.586h1.172a.586.586 0 00.586-.586v-1.172a.586.586 0 00-.586-.586zm0 4.101h-1.172a.586.586 0 00-.586.586v1.172c0 .324.263.586.586.586h1.172a.586.586 0 00.586-.586v-1.172a.586.586 0 00-.586-.586zm0 4.102h-1.172a.586.586 0 00-.586.586v1.172c0 .323.263.586.586.586h1.172a.586.586 0 00.586-.586v-1.172a.586.586 0 00-.586-.586zm10.84-8.203h-1.172a.586.586 0 00-.586.586v1.172c0 .323.262.586.586.586h1.172a.586.586 0 00.586-.586v-1.172a.586.586 0 00-.586-.586zm0 4.101h-1.172a.586.586 0 00-.586.586v1.172c0 .324.262.586.586.586h1.172a.586.586 0 00.586-.586v-1.172a.586.586 0 00-.586-.586zm0 4.102h-1.172a.586.586 0 00-.586.586v1.172c0 .323.262.586.586.586h1.172a.586.586 0 00.586-.586v-1.172a.586.586 0 00-.586-.586zm-4.102-8.203h-1.171a.586.586 0 00-.586.586v1.172c0 .323.262.586.585.586h1.172a.586.586 0 00.586-.586v-1.172a.586.586 0 00-.586-.586zm0 4.101h-1.171a.586.586 0 00-.586.586v1.172c0 .324.262.586.585.586h1.172a.586.586 0 00.586-.586v-1.172a.586.586 0 00-.586-.586zm0 4.102h-1.171a.586.586 0 00-.586.586v1.172c0 .323.262.586.585.586h1.172a.586.586 0 00.586-.586v-1.172a.586.586 0 00-.586-.586z"/></symbol><symbol viewBox="0 0 30 30" id="marketing-3" xmlns="http://www.w3.org/2000/svg"><g clip-path="url(#aoclip0)"><path d="M11.221 13.334a2.112 2.112 0 100-4.225 2.112 2.112 0 000 4.225zm0-3a.88.88 0 110 1.762.88.88 0 010-1.761zm6.911 5.686a2.112 2.112 0 10-4.225-.001 2.112 2.112 0 004.225 0zm-3 0a.88.88 0 111.762 0 .88.88 0 01-1.762 0zm2.439-6.356a.613.613 0 00-.868 0L9.866 16.5a.613.613 0 00.438 1.047.63.63 0 00.437-.179l6.836-6.836a.619.619 0 00-.006-.868zm5.223 10.396c.568 0 1.028.46 1.029 1.028a.616.616 0 101.232 0 2.263 2.263 0 00-1.645-2.174v-.37a.616.616 0 00-1.232 0v.37a2.26 2.26 0 00.616 4.434 1.029 1.029 0 11-1.029 1.029.616.616 0 10-1.231 0 2.263 2.263 0 001.644 2.174v.5a.616.616 0 001.232 0v-.5a2.26 2.26 0 00-.616-4.434 1.029 1.029 0 110-2.057z"/><path d="M25.947 16.316l.881-1.343a2.462 2.462 0 000-2.71l-.998-1.515a1.285 1.285 0 01-.203-.745l.099-1.829a2.459 2.459 0 00-1.35-2.334l-1.619-.813a1.214 1.214 0 01-.542-.542l-.82-1.62a2.458 2.458 0 00-2.333-1.349l-1.83.099a1.22 1.22 0 01-.745-.203L14.972.414a2.461 2.461 0 00-2.71 0l-1.515.998a1.288 1.288 0 01-.745.203l-1.83-.099A2.459 2.459 0 005.84 2.865l-.813 1.614c-.12.236-.312.428-.549.548l-1.62.819A2.458 2.458 0 001.51 8.18l.099 1.83a1.22 1.22 0 01-.204.745L.407 12.27a2.461 2.461 0 000 2.71l.997 1.515c.143.221.214.481.204.745l-.1 1.829a2.458 2.458 0 001.35 2.334l1.62.82c.234.117.424.307.541.541l.82 1.62a2.464 2.464 0 002.334 1.349l1.829-.099c.264-.014.525.057.745.203l1.515.998a2.462 2.462 0 002.71 0l1.343-.88a7.207 7.207 0 109.632-9.639zM15.81 24.803l-1.515.998c-.411.27-.944.27-1.355 0l-1.515-.998a2.455 2.455 0 00-1.49-.4l-1.83.098c-.49.024-.948-.24-1.17-.677l-.82-1.62a2.458 2.458 0 00-1.09-1.09L3.413 20.3a1.239 1.239 0 01-.678-1.17l.099-1.83a2.497 2.497 0 00-.4-1.49l-.998-1.515a1.23 1.23 0 010-1.355l1.004-1.515c.29-.441.43-.964.4-1.49l-.098-1.83c-.025-.49.24-.947.677-1.17l1.62-.82a2.45 2.45 0 001.09-1.09l.82-1.62c.22-.437.68-.702 1.17-.677l1.829.1a2.5 2.5 0 001.49-.401l1.515-.998a1.23 1.23 0 011.355 0l1.503 1.01c.44.29.963.43 1.49.4l1.83-.098c.489-.025.947.24 1.17.677l.819 1.62c.237.471.619.853 1.09 1.09l1.62.82c.437.22.703.68.677 1.17l-.098 1.829a2.498 2.498 0 00.4 1.49l.998 1.515c.27.411.27.944 0 1.355l-.998 1.515c-.012.019-.018.037-.03.056a7.199 7.199 0 00-8.9 8.9.11.11 0 00-.068.024zm6.984 3.966a5.974 5.974 0 110-11.948 5.974 5.974 0 010 11.948z"/></g><defs><clipPath id="aoclip0"><path d="M0 0h30v30H0z"/></clipPath></defs></symbol><symbol viewBox="0 0 30 30" id="marketing-4" xmlns="http://www.w3.org/2000/svg"><path d="M28.306 4.033l-1.282-1.129 1.282-1.129c.2-.175.267-.45.174-.698a.628.628 0 00-.592-.41h-5.305V.44a.44.44 0 00-.88 0v5.93l-3.61 1.96a1.393 1.393 0 00-.144-.462l-.509-.993a1.39 1.39 0 00-1.87-.603l-.393.201a1.38 1.38 0 00-.689.81 1.38 1.38 0 00.086 1.06l.509.994c.118.232.294.415.5.544-.27.364-.398.811-.53 1.276l-.095.335a.44.44 0 10.847.24l.095-.335c.192-.68.31-1.044.687-1.249l.676-.367.083-.042a1.04 1.04 0 00.08-.046l4.814-2.614a1.86 1.86 0 01-.888 1.494l-3.13 1.902a.146.146 0 00-.011.006l-.974.592a.44.44 0 00.42.772l-.74 2.234-.54.222-1.47.602.424-1.497a.44.44 0 00-.846-.24l-.67 2.367a.423.423 0 00-.015.096l-.175 3.216c-.005.122.02.354-.036.474l-1.945 4.091h-1.413c-.828 0-1.501.673-1.501 1.501v1.27a1.49 1.49 0 00-.622-.136H4.52c-.828 0-1.501.673-1.501 1.5v1.576H1.963a.44.44 0 100 .879h25.924a.44.44 0 100-.88h-1.143V17.789c0-.828-.674-1.502-1.501-1.502h-2.66v-7.67c.487-.66.668-1.527.441-2.35a.44.44 0 00-.441-.323v-.802h5.304a.63.63 0 00.593-.41.629.629 0 00-.174-.698zm-12.981 3.52a.507.507 0 01.253-.297l.393-.201a.507.507 0 01.687.22l.509.994a.51.51 0 01-.17.656l-.143.078-.302.155a.51.51 0 01-.687-.222l-.509-.993a.507.507 0 01-.031-.39zm-.883 15.992a1.493 1.493 0 00-.483-.128l.482-.642v.77zm2.087-3.543c.212-.253.27-.549.317-.787.012-.057.229-1.242.229-1.242s.205.128.227.137a.047.047 0 01.027.038l.239 2.432h-1.474l.435-.578zm2.6-2.426l-.371 3.002h-.306l-.248-2.516a.926.926 0 00-.518-.743l-.442-.28.294-1.633s1.241 1.474 1.27 1.511c.257.334.345.468.321.659zm-4.75 2.127c.09-.267.13-.539.124-.816l.16-2.933 2.033-.833-.37 2.047-.002.017-.306 1.693c-.04.175-.075.441-.184.586l-2.971 3.946h-.245l1.762-3.707zM3.9 27.546c0-.343.278-.622.62-.622h3.59c.342 0 .621.279.621.622v1.575H3.898v-1.575zm5.71 0V24.91c0-.343.28-.622.622-.622h3.589c.343 0 .621.28.621.622v4.21H9.61v-1.575zm16.255-9.758V29.12h-4.832v-2.637a.44.44 0 00-.88 0v2.637h-4.831v-7.04c0-.343.279-.622.622-.622h3.588c.343 0 .622.279.622.621v2.205a.44.44 0 10.88 0v-6.497c0-.343.278-.622.621-.622h3.588c.343 0 .622.279.622.622zm-4.21-1.502c-.828 0-1.501.674-1.501 1.502v2.927a1.488 1.488 0 00-.51-.13l.359-2.901c.07-.566-.218-.94-.497-1.303-.03-.038-1.738-2.067-1.738-2.067l1.048-3.17 2.888-1.755v6.898h-.049zm.929-12.025V1.547h4.651l-1.002.882a.633.633 0 000 .95l1.002.882h-4.651z"/></symbol><symbol viewBox="0 0 30 30" id="marketing-5" xmlns="http://www.w3.org/2000/svg"><path d="M28.594.938H14.53a.469.469 0 00-.469.468v7.64L12.636 7.38a2.342 2.342 0 00-1.78-.819H9.115c.357-.397.6-.882.69-1.406h.508a.47.47 0 00.419-.678l-.888-1.776v-.358c0-.776-.631-1.406-1.406-1.406H5.624c-.775 0-1.406.63-1.406 1.406v2.243c0 .754.286 1.451.752 1.976h-.752a2.346 2.346 0 00-2.344 2.343v4.219c0 .53.183 1.013.48 1.406h-.949a.469.469 0 00-.467.47v1.875c0 .26.21.469.468.469h.469v1.875h.938v-1.875h14.062v.937h.938v-.937h10.78c.26 0 .47-.21.47-.469V1.406a.468.468 0 00-.47-.468zM5.156 2.343a.47.47 0 01.469-.469h2.813a.47.47 0 01.468.469v.469a.47.47 0 00.05.209l.598 1.197h-.179a.469.469 0 00-.469.468 1.88 1.88 0 01-2.06 1.868c-.948-.092-1.69-.956-1.69-1.968V2.344zM7.68 7.5l-.648 1.296L6.383 7.5H7.68zm-4.867 5.625V8.906c0-.775.631-1.406 1.407-1.406h1.116l1.277 2.553a.468.468 0 00.839 0L8.727 7.5h2.13c.41 0 .8.18 1.067.49l2.252 2.628a.468.468 0 00.687.026l2.48-2.481 1.213 1.212-3.03 3.03a1.41 1.41 0 01-1.989 0l-1.486-1.486a.469.469 0 00-.8.331v3.281H8.905v-1.406c0-.775-.63-1.406-1.406-1.406H5.625v-.938h-.938v1.406c0 .26.21.47.47.47H7.5a.47.47 0 01.469.468v1.406h-3.75c-.776 0-1.407-.63-1.407-1.406zm9.376 1.406v-2.15l.686.687c.337.337.753.548 1.188.636v.827h-1.874zm5.624 1.875H1.876v-.937h15.938v.937zm10.313 0H18.75V15c0-.26-.21-.469-.469-.469H15v-.827a2.33 2.33 0 001.189-.636l3.361-3.362a.468.468 0 000-.662l-1.075-1.075 2.481-2.481-.662-.663-2.482 2.48-.137-.136a.468.468 0 00-.663 0L15 9.18V1.875h13.125v14.531z"/><path d="M20.625 3.805l2.603 1.301a.464.464 0 00.42 0l2.812-1.405-.42-.839-2.602 1.301-2.603-1.3a.469.469 0 00-.42 0l-2.813 1.405.42.839 2.603-1.302zm.469 4.164h5.625v.937h-5.625V7.97zm0 1.875h5.625v.937h-5.625v-.937zm0 1.875h5.625v.937h-5.625v-.937zm0 1.875h5.625v.937h-5.625v-.937zM2.344 25.781v2.813c0 .259.21.468.469.468H7.5a.468.468 0 00.469-.468V25.78a2.81 2.81 0 00-1.354-2.4 2.33 2.33 0 00.885-1.819 2.346 2.346 0 00-2.344-2.343 2.346 2.346 0 00-2.343 2.343c0 .738.35 1.39.884 1.82a2.81 2.81 0 00-1.353 2.4zm1.406-4.218a1.408 1.408 0 012.813 0c0 .775-.631 1.406-1.407 1.406a1.408 1.408 0 01-1.406-1.407zm-.469 4.218c0-1.034.841-1.875 1.875-1.875s1.875.841 1.875 1.875v2.344h-3.75v-2.344zm5.625 0v2.813c0 .259.21.468.469.468h4.688a.468.468 0 00.468-.468V25.78a2.81 2.81 0 00-1.353-2.4 2.33 2.33 0 00.884-1.819 2.346 2.346 0 00-2.343-2.343 2.346 2.346 0 00-2.344 2.343c0 .738.35 1.39.884 1.82a2.81 2.81 0 00-1.353 2.4zm1.406-4.218c0-.776.631-1.407 1.407-1.407a1.407 1.407 0 010 2.813 1.408 1.408 0 01-1.406-1.407zm-.468 4.218c0-1.034.84-1.875 1.875-1.875 1.034 0 1.875.841 1.875 1.875v2.344h-3.75v-2.344zm5.625 0v2.813c0 .259.21.468.469.468h4.687a.468.468 0 00.469-.468V25.78a2.81 2.81 0 00-1.354-2.4 2.33 2.33 0 00.885-1.819 2.346 2.346 0 00-2.344-2.343 2.346 2.346 0 00-2.343 2.343c0 .738.35 1.39.884 1.82a2.81 2.81 0 00-1.353 2.4zm1.406-4.218a1.408 1.408 0 012.813 0c0 .775-.631 1.406-1.407 1.406a1.408 1.408 0 01-1.406-1.407zm-.469 4.218c0-1.034.841-1.875 1.875-1.875s1.875.841 1.875 1.875v2.344h-3.75v-2.344zm5.625 0v2.813c0 .259.21.468.469.468h4.688a.468.468 0 00.468-.468V25.78a2.81 2.81 0 00-1.353-2.4 2.33 2.33 0 00.884-1.819 2.346 2.346 0 00-2.343-2.343 2.346 2.346 0 00-2.344 2.343c0 .738.35 1.39.884 1.82a2.81 2.81 0 00-1.353 2.4zm1.407-4.218c0-.776.63-1.407 1.406-1.407a1.407 1.407 0 010 2.813 1.408 1.408 0 01-1.407-1.407zm-.47 4.218c0-1.034.842-1.875 1.876-1.875 1.034 0 1.875.841 1.875 1.875v2.344h-3.75v-2.344z"/></symbol><symbol viewBox="0 0 30 30" id="marketing-6" xmlns="http://www.w3.org/2000/svg"><path d="M28.945 25.472a.46.46 0 00-.351-.16h-.469v-14.53a1.41 1.41 0 00-1.406-1.407h-.469V2.344A1.41 1.41 0 0024.844.938H5.156A1.41 1.41 0 003.75 2.343v7.031h-.469a1.41 1.41 0 00-1.406 1.406v14.531h-.469a.46.46 0 00-.448.335.475.475 0 00-.016.2l.29 2.1c.006.019.006.033.01.051a1.406 1.406 0 001.364 1.064h24.788a1.406 1.406 0 001.364-1.064c.005-.018.005-.032.01-.051l.29-2.1a.475.475 0 00-.113-.375zM4.688 2.344a.469.469 0 01.468-.469h19.688a.47.47 0 01.468.469v2.344H4.689V2.344zm0 3.281h20.624v17.344a.469.469 0 01-.468.468H5.156a.469.469 0 01-.468-.468V5.625zm-1.875 5.156a.469.469 0 01.468-.469h.469V22.97a1.41 1.41 0 001.406 1.406h19.688a1.41 1.41 0 001.406-1.406V10.312h.469a.47.47 0 01.468.47v14.53H16.876a.469.469 0 00-.469.47v.468h-2.812v-.469a.469.469 0 00-.469-.468H2.813V10.78zm25.03 17.011a.473.473 0 01-.45.333H2.607a.472.472 0 01-.45-.333l-.21-1.542h10.71v.469a.469.469 0 00.469.468h3.75a.469.469 0 00.469-.468v-.469h10.71l-.21 1.542z"/><path d="M9.375 2.813h.938v.937h-.938v-.938zm-1.875 0h.938v.937H7.5v-.938zm-1.875 0h.938v.937h-.938v-.938zm.469 7.5h17.812a.469.469 0 00.469-.47V7.032a.469.469 0 00-.469-.468H6.094a.469.469 0 00-.469.468v2.813a.469.469 0 00.469.469zM6.562 7.5h16.875v1.875H6.563V7.5zM6.094 15h4.687a.469.469 0 00.469-.469V11.72a.469.469 0 00-.469-.469H6.094a.469.469 0 00-.469.469v2.812a.469.469 0 00.469.469zm.468-2.813h3.75v1.876h-3.75v-1.876zM6.094 22.5h11.25a.469.469 0 00.468-.469v-5.625a.469.469 0 00-.468-.468H6.094a.469.469 0 00-.469.468v5.625a.469.469 0 00.469.469zm.468-5.625h10.313v4.688H6.562v-4.688zm5.626-5.156h1.874v.937h-1.874v-.937zm2.812 0h9.375v.937H15v-.937zm-2.812 1.875h7.5v.937h-7.5v-.937zm8.437 0h3.75v.937h-3.75v-.937zm-1.875 3.281h3.281v.938H18.75v-.938zm4.219 0h1.406v.938h-1.406v-.938zM18.75 18.75h5.625v.938H18.75v-.938zm0 1.875h1.875v.938H18.75v-.938zm2.813 0h2.812v.938h-2.813v-.938z"/></symbol><symbol viewBox="0 0 20 20" id="phone" xmlns="http://www.w3.org/2000/svg"><path d="M16.836 11.922c-.436-.453-.963-.694-1.52-.694-.554 0-1.085.237-1.54.69l-1.422 1.41c-.117-.062-.234-.12-.347-.178a5.727 5.727 0 01-.445-.238c-1.332-.842-2.543-1.94-3.704-3.36-.562-.708-.94-1.304-1.215-1.909.369-.336.711-.685 1.044-1.021.126-.126.252-.256.378-.381.945-.94.945-2.16 0-3.1L6.837 1.918c-.14-.14-.284-.283-.419-.426a20.83 20.83 0 00-.846-.833C5.135.229 4.613 0 4.064 0s-1.08.228-1.53.659l-.009.009-1.53 1.536A3.272 3.272 0 00.02 4.288c-.11 1.308.278 2.527.575 3.324.729 1.958 1.818 3.772 3.442 5.717a21.167 21.167 0 007.052 5.497c1.035.488 2.417 1.066 3.96 1.165.095.005.194.009.284.009 1.04 0 1.913-.372 2.597-1.111.004-.01.013-.014.018-.023.234-.282.504-.537.787-.81.194-.184.392-.377.585-.578.446-.462.68-1 .68-1.55 0-.556-.238-1.09-.693-1.537l-2.47-2.469zm1.611 4.718c-.004 0-.004.004 0 0-.175.188-.355.358-.549.546-.292.278-.59.57-.868.896-.455.484-.99.713-1.692.713-.068 0-.14 0-.207-.005-1.337-.085-2.58-.604-3.51-1.048a19.978 19.978 0 01-6.643-5.18c-1.535-1.84-2.56-3.543-3.24-5.371-.419-1.116-.572-1.985-.504-2.805.045-.524.247-.959.62-1.33L3.39 1.528c.22-.206.455-.318.684-.318.284 0 .513.17.657.313l.014.014c.274.255.535.52.81.802.14.143.283.286.427.434L7.21 3.996c.477.475.477.914 0 1.39-.13.13-.256.26-.387.385-.378.385-.738.743-1.13 1.093-.009.009-.018.013-.022.022-.387.386-.315.762-.234 1.017l.013.04c.32.771.77 1.497 1.454 2.362l.005.004c1.242 1.523 2.551 2.71 3.996 3.62.184.117.373.21.553.3.162.081.315.157.446.238.018.009.036.022.054.031a.978.978 0 00.445.112c.374 0 .608-.233.684-.309l1.54-1.532c.153-.152.396-.336.68-.336.278 0 .508.175.647.327l.01.009 2.479 2.469c.463.456.463.927.004 1.402z"/></symbol><symbol viewBox="0 0 20 20" id="play" xmlns="http://www.w3.org/2000/svg"><g clip-path="url(#atclip0)"><path d="M18.49 9.129l-16-9A1.002 1.002 0 001 1v18a1 1 0 001.49.871l16-9a1.003 1.003 0 000-1.743z"/></g><defs><clipPath id="atclip0"><path d="M0 0h20v20H0z"/></clipPath></defs></symbol><symbol viewBox="0 0 10 10" id="plus" xmlns="http://www.w3.org/2000/svg"><path d="M9.61 4.61H5.39V.39a.39.39 0 10-.78 0v4.22H.39a.39.39 0 100 .78h4.22v4.22a.39.39 0 10.78 0V5.39h4.22a.39.39 0 100-.78z"/></symbol><symbol viewBox="0 0 20 20" id="search" xmlns="http://www.w3.org/2000/svg"><g clip-path="url(#avclip0)"><path d="M19.772 18.673l-4.88-4.881a8.378 8.378 0 001.943-5.374C16.835 3.776 13.06 0 8.418 0 3.776 0 0 3.776 0 8.418c0 4.641 3.776 8.417 8.418 8.417a8.37 8.37 0 005.373-1.944l4.882 4.881a.775.775 0 001.1 0 .777.777 0 000-1.1zM1.555 8.418a6.87 6.87 0 016.863-6.863 6.87 6.87 0 016.862 6.863 6.87 6.87 0 01-6.862 6.862 6.87 6.87 0 01-6.863-6.862z"/></g><defs><clipPath id="avclip0"><path d="M0 0h20v20H0z"/></clipPath></defs></symbol><symbol viewBox="0 0 15 15" id="star" xmlns="http://www.w3.org/2000/svg"><path d="M14.602 5.365l-4.61-.704L7.923.258c-.154-.328-.693-.328-.848 0L5.01 4.661l-4.611.704a.469.469 0 00-.265.79l3.35 3.435-.792 4.854a.47.47 0 00.69.486L7.5 12.652l4.118 2.277a.47.47 0 00.69-.486l-.792-4.854 3.35-3.434a.47.47 0 00-.265-.79z"/></symbol><symbol viewBox="0 0 16 16" id="telegram" xmlns="http://www.w3.org/2000/svg"><path d="M14.629 3.698l-2.012 9.618c-.152.679-.548.848-1.11.528l-3.066-2.29-1.48 1.442c-.163.166-.3.305-.616.305l.22-3.165 5.683-5.204c.247-.223-.054-.347-.384-.123L4.839 9.29l-3.024-.959c-.658-.208-.67-.667.137-.986L13.78 2.727c.548-.208 1.027.124.849.971z"/></symbol><symbol viewBox="0 0 20 20" id="user" xmlns="http://www.w3.org/2000/svg"><path d="M10 0a5.28 5.28 0 00-5.273 5.273A5.28 5.28 0 0010 10.547a5.28 5.28 0 005.273-5.274A5.28 5.28 0 0010 0zm0 9.375a4.106 4.106 0 01-4.102-4.102A4.106 4.106 0 0110 1.172a4.106 4.106 0 014.102 4.101A4.106 4.106 0 0110 9.375zm6.561 4.617a7.518 7.518 0 00-5.39-2.273H8.829a7.518 7.518 0 00-5.39 2.273 7.685 7.685 0 00-2.227 5.422c0 .324.262.586.586.586h16.406a.586.586 0 00.586-.586 7.685 7.685 0 00-2.228-5.422zM2.41 18.828c.293-3.323 3.06-5.937 6.42-5.937h2.343c3.359 0 6.126 2.614 6.42 5.937H2.408z"/></symbol><symbol viewBox="0 0 16 16" id="viber" xmlns="http://www.w3.org/2000/svg"><path d="M8 1.335c-1.071.013-3.374.19-4.662 1.37-.958.948-1.292 2.35-1.331 4.084-.033 1.728-.072 4.973 3.058 5.856v1.346s-.02.538.337.648c.438.14.688-.275 1.105-.72l.778-.879c2.142.178 3.782-.232 3.97-.293.435-.139 2.883-.451 3.283-3.696.41-3.351-.2-5.463-1.301-6.418h-.007c-.332-.306-1.668-1.279-4.652-1.29 0 0-.222-.014-.578-.008zm.037.942a7.02 7.02 0 01.488.011c2.527.007 3.732.767 4.017 1.023.927.794 1.405 2.697 1.055 5.495-.332 2.713-2.317 2.885-2.685 3.002-.156.05-1.6.406-3.42.289 0 0-1.356 1.634-1.78 2.055-.067.074-.146.095-.196.085-.071-.018-.093-.107-.089-.229l.013-2.233c-2.655-.733-2.498-3.5-2.47-4.946.033-1.446.304-2.628 1.113-3.43 1.088-.982 3.043-1.115 3.953-1.122zm.2 1.446a.166.166 0 100 .332 3.136 3.136 0 012.242.883c.606.588.9 1.378.912 2.411 0 .092.074.167.167.167V7.51a.167.167 0 00.168-.165 3.588 3.588 0 00-1.009-2.646c-.66-.645-1.496-.977-2.48-.977zm-2.198.382a.523.523 0 00-.342.067H5.69a2.61 2.61 0 00-.637.523 1.003 1.003 0 00-.256.525.71.71 0 00.026.302l.01.006c.172.504.396.988.67 1.444a8.48 8.48 0 001.29 1.762l.015.022.024.017.015.018.017.015c.532.505 1.127.94 1.769 1.295.734.4 1.18.588 1.447.667v.004c.078.024.15.034.221.034.228-.016.444-.109.613-.262a2.53 2.53 0 00.517-.638v-.004c.128-.241.085-.469-.1-.623-.37-.323-.77-.61-1.195-.857-.285-.155-.574-.061-.69.095l-.25.315c-.129.156-.361.134-.361.134l-.007.004C7.093 8.527 6.63 6.772 6.63 6.772s-.022-.239.139-.36l.312-.252c.15-.122.254-.41.094-.695a7.498 7.498 0 00-.856-1.194.475.475 0 00-.28-.167zm2.486.495c-.221 0-.221.334.003.334A2.098 2.098 0 0110 5.572 1.94 1.94 0 0110.5 7a.168.168 0 00.167.165l.007.009a.169.169 0 00.167-.167c.015-.662-.191-1.218-.595-1.663C9.84 4.9 9.273 4.65 8.549 4.6h-.024zm.274.898c-.228-.006-.236.335-.01.341.55.029.816.306.851.877a.166.166 0 00.165.163h.007a.168.168 0 00.16-.178c-.039-.744-.445-1.164-1.166-1.202H8.8z"/></symbol><symbol viewBox="0 0 24 24" id="vk" xmlns="http://www.w3.org/2000/svg"><path d="M21.579 6.855c.14-.465 0-.806-.662-.806h-2.193c-.558 0-.813.295-.953.619 0 0-1.115 2.719-2.695 4.482-.51.513-.743.675-1.021.675-.139 0-.341-.162-.341-.627V6.855c0-.558-.161-.806-.626-.806H9.642c-.348 0-.558.258-.558.504 0 .528.79.65.871 2.138v3.228c0 .707-.127.836-.407.836-.743 0-2.551-2.73-3.624-5.853-.209-.607-.42-.852-.98-.852H2.752c-.627 0-.752.295-.752.619 0 .582.743 3.462 3.461 7.27 1.812 2.602 4.363 4.012 6.687 4.012 1.393 0 1.565-.313 1.565-.853v-1.966c0-.626.133-.752.574-.752.324 0 .882.164 2.183 1.417 1.486 1.486 1.732 2.153 2.567 2.153h2.192c.626 0 .939-.313.759-.931-.197-.615-.907-1.51-1.849-2.57-.512-.603-1.277-1.253-1.51-1.578-.325-.42-.231-.604 0-.976.001 0 2.672-3.761 2.95-5.04z"/></symbol><symbol viewBox="0 0 16 16" id="whatsapp" xmlns="http://www.w3.org/2000/svg"><path fill-rule="evenodd" clip-rule="evenodd" d="M12.269 3.755A5.947 5.947 0 008.035 2 5.994 5.994 0 002.05 7.985a5.98 5.98 0 00.799 2.992L2 14.077l3.173-.832c.877.477 1.86.728 2.86.728h.002a5.993 5.993 0 005.533-8.276 5.953 5.953 0 00-1.3-1.942zm-4.234 9.208h-.002c-.89 0-1.765-.24-2.532-.694l-.181-.108-1.883.494.502-1.835-.118-.188a4.965 4.965 0 01-.76-2.647 4.982 4.982 0 016.88-4.597c.604.25 1.152.618 1.613 1.081a4.946 4.946 0 011.455 3.52 4.982 4.982 0 01-4.974 4.974zm2.729-3.726c-.15-.075-.885-.436-1.022-.486-.137-.05-.236-.075-.336.074-.1.15-.387.486-.474.586-.087.1-.175.112-.324.038-.15-.075-.631-.233-1.203-.742a4.505 4.505 0 01-.832-1.036c-.087-.15-.009-.231.066-.306.068-.066.15-.174.224-.262.075-.087.1-.149.15-.249.05-.1.025-.187-.013-.262-.037-.075-.337-.811-.461-1.11-.121-.29-.244-.252-.336-.256a6.418 6.418 0 00-.286-.005.55.55 0 00-.4.186c-.137.15-.523.512-.523 1.248s.536 1.447.61 1.547c.075.1 1.055 1.61 2.555 2.258.358.154.636.246.853.315.358.114.684.098.942.06.287-.043.885-.362 1.01-.711.124-.35.124-.649.087-.711-.038-.063-.138-.101-.287-.176z"/></symbol></svg>