<svg width="10" height="10" viewBox="0 0 10 10" fill="none" xmlns="http://www.w3.org/2000/svg">
<g clip-path="url(#clip0)">
<path d="M7.58656 5.27442L2.96126 9.88692C2.80972 10.038 2.56437 10.0377 2.41308 9.88614C2.26191 9.73459 2.2623 9.48911 2.41386 9.33795L6.76385 4.99998L2.41371 0.662031C2.26216 0.51086 2.26177 0.265529 2.41292 0.113967C2.48876 0.0379906 2.58812 1.90735e-06 2.68747 1.90735e-06C2.78658 1.90735e-06 2.88554 0.0377369 2.96124 0.113186L7.58656 4.72557C7.65954 4.79819 7.7005 4.89701 7.7005 4.99998C7.7005 5.10295 7.65943 5.20166 7.58656 5.27442Z" fill="white"/>
</g>
<defs>
<clipPath id="clip0">
<rect width="10" height="10" rx="5" transform="matrix(1 0 0 -1 0 10)" fill="white"/>
</clipPath>
</defs>
</svg>
