<svg width="10" height="10" viewBox="0 0 10 10" fill="none" xmlns="http://www.w3.org/2000/svg">
<g clip-path="url(#clip0)">
<path d="M2.41344 5.27442L7.03874 9.88692C7.19028 10.038 7.43563 10.0377 7.58692 9.88614C7.73809 9.73459 7.7377 9.48911 7.58614 9.33795L3.23615 4.99998L7.58629 0.662031C7.73784 0.51086 7.73823 0.265529 7.58708 0.113967C7.51124 0.0379906 7.41188 1.90735e-06 7.31253 1.90735e-06C7.21342 1.90735e-06 7.11446 0.0377369 7.03876 0.113186L2.41344 4.72557C2.34046 4.79819 2.2995 4.89701 2.2995 4.99998C2.2995 5.10295 2.34057 5.20166 2.41344 5.27442Z" fill="white"/>
</g>
<defs>
<clipPath id="clip0">
<rect x="10" y="10" width="10" height="10" rx="5" transform="rotate(180 10 10)" fill="white"/>
</clipPath>
</defs>
</svg>
