<svg width="14" height="14" viewBox="0 0 14 14" fill="none" xmlns="http://www.w3.org/2000/svg">
<path d="M8.01892 7.00979L13.7727 1.28103C14.0486 1.00766 14.0486 0.565112 13.7727 0.292435C13.4976 0.0190617 13.0506 0.0190617 12.7755 0.292435L7.02662 6.01631L1.22457 0.207122C0.949409 -0.0690408 0.502482 -0.0690408 0.227324 0.207122C-0.0478333 0.483983 -0.0478333 0.932109 0.227324 1.20827L6.02514 7.01328L0.206368 12.8064C-0.0687894 13.0797 -0.0687894 13.5223 0.206368 13.795C0.481526 14.0683 0.928453 14.0683 1.20361 13.795L7.01744 8.00676L12.7964 13.7929C13.0715 14.069 13.5185 14.069 13.7936 13.7929C14.0688 13.516 14.0688 13.0679 13.7936 12.7917L8.01892 7.00979Z" fill="#2A7D03"/>
</svg>
