<svg width="30" height="30" viewBox="0 0 30 30" fill="none" xmlns="http://www.w3.org/2000/svg">
<g clip-path="url(#clip0)">
<path d="M26.4316 9.00363H25.3987V0.585993C25.3987 0.356364 25.2645 0.147888 25.0556 0.0527314C24.8466 -0.0424834 24.6014 -0.00679982 24.4281 0.143962L22.8764 1.49396C22.0665 2.19861 21.1913 2.85064 20.2753 3.43195C16.7967 5.63965 12.7774 6.80654 8.65181 6.80654H5.79858C2.92397 6.80654 0.585205 9.13131 0.585205 11.9888C0.585205 14.8463 2.92392 17.1711 5.79858 17.1711H7.16569V29.4141C7.16569 29.7377 7.42808 30.0001 7.75163 30.0001H11.1126C12.2714 30.0001 13.2142 29.0573 13.2142 27.8985V25.4432H14.1018C15.2624 25.4432 16.2066 24.499 16.2066 23.3358C16.2066 22.1752 15.2624 21.231 14.1018 21.231H13.2142V17.6544C15.7087 18.1898 18.0979 19.1638 20.2753 20.5457C21.1914 21.1271 22.0665 21.7792 22.8764 22.4837L24.4281 23.8337C24.5369 23.9283 24.674 23.9776 24.8128 23.9776C24.895 23.9776 24.9778 23.9603 25.0555 23.9249C25.2645 23.8298 25.3986 23.6213 25.3986 23.3917V14.9741H26.4316C28.0765 14.9741 29.4148 13.6358 29.4148 11.9869C29.4149 10.3419 28.0766 9.00363 26.4316 9.00363ZM1.75714 11.9889C1.75714 9.77754 3.57009 7.97847 5.79864 7.97847H7.16575V15.9993H5.79858C3.57009 15.9993 1.75714 14.2002 1.75714 11.9889ZM14.1018 22.4029C14.6162 22.4029 15.0348 22.8214 15.0348 23.3384C15.0348 23.8528 14.6162 24.2713 14.1018 24.2713H13.2143V22.4029H14.1018ZM12.0424 27.8985C12.0424 28.4111 11.6253 28.8282 11.1126 28.8282H8.33763V17.1711H8.65187C9.79327 17.1711 10.9265 17.2605 12.0424 17.4364V27.8985ZM24.2268 22.1053L23.6455 21.5995C22.872 20.9266 22.0422 20.2992 21.1752 19.7316V14.9343C21.1752 14.6108 20.9128 14.3484 20.5893 14.3484C20.2657 14.3484 20.0033 14.6108 20.0033 14.9343V19.0137C16.5511 17.0385 12.6487 15.9993 8.65187 15.9993H8.33763V7.97847H8.65187C12.6488 7.97847 16.5512 6.9392 20.0033 4.96406V9.63673C20.0033 9.96035 20.2657 10.2227 20.5893 10.2227C20.9128 10.2227 21.1752 9.96035 21.1752 9.63673V4.24617C22.0422 3.67857 22.872 3.05121 23.6455 2.37814L24.2268 1.87248V22.1053ZM26.4316 13.8022H25.3987V10.1755H26.4316C27.4304 10.1755 28.243 10.9881 28.243 11.9909C28.243 12.9896 27.4304 13.8022 26.4316 13.8022Z" fill="#2A7D03"/>
<path d="M21.1301 12.0722C21.0356 11.8456 20.804 11.698 20.5581 11.7113C20.3138 11.7245 20.1004 11.8927 20.0288 12.1261C19.9571 12.36 20.0441 12.6214 20.2404 12.7668C20.4315 12.9083 20.6962 12.9193 20.8984 12.7939C21.1387 12.6447 21.2388 12.3334 21.1301 12.0722Z" fill="#2A7D03"/>
</g>
<defs>
<clipPath id="clip0">
<rect width="30" height="30" fill="white"/>
</clipPath>
</defs>
</svg>
